<?xml version="1.0" encoding="utf-8"?>
<!-- Generator: Adobe Illustrator 16.0.0, SVG Export Plug-In . SVG Version: 6.00 Build 0)  -->
<!DOCTYPE svg PUBLIC "-//W3C//DTD SVG 1.1//EN" "http://www.w3.org/Graphics/SVG/1.1/DTD/svg11.dtd">
<svg version="1.1" id="Capa_1" xmlns="http://www.w3.org/2000/svg" xmlns:xlink="http://www.w3.org/1999/xlink" x="0px" y="0px"
	 width="260.79px" height="206.93px" viewBox="0 0 260.79 206.93" enable-background="new 0 0 260.79 206.93" xml:space="preserve">
<g>
	<path fill-rule="evenodd" clip-rule="evenodd" fill="none" d="M131.494,191.5c13.83,0,27.66-0.062,41.488,0.036
		c4.492,0.031,8.902-0.346,13.311-1.135c5.493-0.982,9.099-3.907,10.243-9.527c0.167-0.816,0.385-1.623,0.548-2.439
		c0.867-4.347,0.927-8.938,4.006-12.598c0.559-0.664,0.279-1.49-0.258-2.141c-0.555-0.674-0.636-1.207,0.233-1.718
		c1.51-0.884,1.998-2.016,0.671-3.476c-0.372-0.41-0.506-0.828,0.058-1.187c1.192-0.762,1.408-1.964,1.575-3.241
		c0.159-1.233,0.333-2.491,1.42-3.366c0.551-0.443,0.537-1.009,0.167-1.597c-0.685-1.093-0.462-2.171,0.121-3.216
		c0.676-1.212,1.227-2.447,1.062-3.893c-0.089-0.776,0.442-1.136,1.032-1.509c2.269-1.437,2.368-2.127,0.478-3.889
		c-0.689-0.642-0.795-1.056-0.029-1.689c0.927-0.769,1.213-1.886,1.348-3.029c0.165-1.415,0.616-2.629,1.853-3.505
		c0.969-0.686,1.111-1.569,0.398-2.631c-1.312-1.95-1.287-1.991,0.769-3.418c1.232-0.855,1.87-1.904,1.052-3.327
		c-0.537-0.937-0.193-1.312,0.607-1.805c1.644-1.01,1.712-1.579,0.649-3.149c-1.151-1.7-1.02-2.369,0.899-3.047
		c1.486-0.523,2.061-1.382,1.952-2.927c-0.105-1.482-0.023-2.979-0.026-4.469c-0.002-0.599,0.047-1.256-0.378-1.711
		c-2.925-3.134-3.068-7.145-3.414-11.042c-1.087-12.266-3.728-24.128-9.078-35.278c-5.676-11.826-13.498-21.913-24.572-29.174
		c-12.525-8.211-26.354-12.366-41.316-12.485c-9.332-0.074-18.654-0.428-27.918,1.703c-16.336,3.76-30.358,11.279-40.968,24.408
		C57.139,55.293,51.63,73.212,49.997,92.495c-0.288,3.387-0.959,6.572-2.787,9.483c-1.549,2.468-0.673,5.196-0.646,7.824
		c0.002,0.229,0.316,0.5,0.545,0.668c1.6,1.17,1.94,2.858,2.171,4.696c0.254,2.027,0.346,4.249,1.274,5.975
		c1.092,2.03,2.007,4.023,2.42,6.27c0.454,2.467,0.931,4.927,2.399,7.05c0.368,0.533,0.303,1.145,0.247,1.733
		c-0.175,1.835,0.224,3.548,0.985,5.204c0.949,2.062,1.568,4.207,2.067,6.438c1.008,4.513,1.359,9.205,3.445,13.45
		c0.487,0.992,0.55,2.049,0.105,3.122c-0.239,0.574-0.215,1.247,0.263,1.679c3.041,2.736,3.334,6.406,3.609,10.135
		c0.292,3.941,1.475,7.592,4.033,10.699c1.892,2.297,4.248,4.107,7.244,4.099c2.748-0.008,5.428,0.501,8.16,0.495
		C100.853,191.484,116.173,191.5,131.494,191.5z"/>
	<path fill-rule="evenodd" clip-rule="evenodd" d="M131.494,191.5c-15.321,0-30.641-0.016-45.961,0.015
		c-2.732,0.006-5.412-0.503-8.16-0.495c-2.996,0.009-5.352-1.802-7.244-4.099c-2.558-3.107-3.742-6.758-4.033-10.699
		c-0.275-3.729-0.569-7.398-3.609-10.135c-0.478-0.432-0.502-1.104-0.263-1.679c0.445-1.073,0.381-2.13-0.105-3.122
		c-2.086-4.245-2.438-8.938-3.445-13.45c-0.499-2.23-1.118-4.376-2.067-6.438c-0.762-1.656-1.16-3.369-0.985-5.204
		c0.056-0.589,0.121-1.2-0.247-1.733c-1.468-2.123-1.945-4.583-2.399-7.05c-0.413-2.246-1.328-4.239-2.42-6.27
		c-0.928-1.726-1.021-3.947-1.274-5.975c-0.231-1.838-0.572-3.526-2.171-4.696c-0.229-0.168-0.543-0.439-0.545-0.668
		c-0.027-2.628-0.902-5.355,0.646-7.824c1.828-2.912,2.499-6.096,2.787-9.483c1.634-19.283,7.143-37.202,19.479-52.466
		c10.61-13.128,24.632-20.647,40.968-24.408c9.264-2.131,18.586-1.777,27.918-1.703c14.963,0.12,28.791,4.274,41.316,12.485
		c11.074,7.262,18.896,17.348,24.572,29.174c5.351,11.15,7.991,23.012,9.078,35.278c0.346,3.897,0.489,7.908,3.414,11.042
		c0.425,0.456,0.376,1.113,0.378,1.711c0.003,1.489-0.079,2.986,0.026,4.469c0.108,1.545-0.466,2.403-1.952,2.927
		c-1.919,0.678-2.051,1.347-0.899,3.047c1.063,1.57,0.994,2.14-0.649,3.149c-0.801,0.493-1.145,0.868-0.607,1.805
		c0.818,1.423,0.181,2.472-1.052,3.327c-2.056,1.427-2.08,1.468-0.769,3.418c0.713,1.062,0.57,1.945-0.398,2.631
		c-1.236,0.876-1.688,2.09-1.853,3.505c-0.135,1.144-0.421,2.261-1.348,3.029c-0.766,0.634-0.66,1.048,0.029,1.689
		c1.891,1.762,1.791,2.452-0.478,3.889c-0.59,0.373-1.121,0.732-1.032,1.509c0.165,1.445-0.386,2.681-1.062,3.893
		c-0.583,1.045-0.806,2.123-0.121,3.216c0.37,0.588,0.384,1.153-0.167,1.597c-1.087,0.875-1.261,2.133-1.42,3.366
		c-0.167,1.277-0.383,2.479-1.575,3.241c-0.563,0.358-0.43,0.776-0.058,1.187c1.327,1.46,0.839,2.592-0.671,3.476
		c-0.869,0.511-0.788,1.044-0.233,1.718c0.537,0.65,0.816,1.477,0.258,2.141c-3.079,3.66-3.139,8.251-4.006,12.598
		c-0.163,0.816-0.381,1.623-0.548,2.439c-1.145,5.62-4.75,8.545-10.243,9.527c-4.408,0.789-8.818,1.166-13.311,1.135
		C159.154,191.438,145.324,191.5,131.494,191.5z M180.575,78.873c1.396,2.661,2.608,5.228,3.356,7.979
		c0.799,2.939,0.513,5.768-1.089,8.439c-0.579,0.963-0.993,2.033-1.4,3.086c-0.774,2.007-0.222,2.717,1.901,2.345
		c3.247-0.569,6.511-0.728,9.792-0.58c1.366,0.062,2.727,0.271,4.094,0.347c3.211,0.177,3.766-0.354,3.695-3.634
		c-0.035-1.605-0.2-3.208-0.317-4.81c-0.727-9.882-2.9-19.416-6.813-28.541c-5.612-13.092-14.183-23.512-27.102-29.987
		c-9.608-4.817-19.928-6.737-30.549-7.222c-6.921-0.317-13.817,0.209-20.642,1.415c-12.456,2.203-23.675,7.05-32.525,16.313
		c-14.659,15.342-19.741,34.38-20.594,54.944c-0.038,0.918,0.295,1.842,1.505,1.823c2.145-0.034,4.292-0.128,6.33-0.895
		c0.975-0.366,1.683-0.986,1.322-2.171c-0.836-2.746-0.52-5.565-0.493-8.35c0.129-13.518,13.471-22.786,26.09-17.963
		c4.226,1.614,8.027,1.623,12.236-0.083c10.005-4.059,20.966,1.278,24.204,11.601c1.604,5.112,1.233,10.365,0.537,15.59
		c-0.308,2.296,0.353,3.204,2.646,3.024c2.665-0.21,5.32-0.607,7.966-1.011c4.081-0.624,4.11-0.698,2.728-4.606
		c-3.958-11.177-7.924-22.352-11.893-33.524c-1.097-3.088-1.59-6.262-1.006-9.495c1.337-7.387,5.579-12.441,12.707-14.785
		c7.189-2.365,13.52-0.435,18.955,4.617c3.432,3.19,4.338,6.432,2.76,9.908c-1.775,3.917-3.107,7.996-4.62,12.008
		c-0.219,0.579-0.675,1.223-0.003,1.807c0.588,0.51,1.118,0.041,1.651-0.167c2.596-1.015,4.46-2.876,6.077-5.09
		c1.048-1.434,1.829-1.291,2.563,0.313c0.396,0.867,0.726,1.763,1.109,2.635c1.391,3.177,1.357,6.262-0.06,9.497
		c-1.697,3.871-3.072,7.881-4.567,11.838c-0.225,0.591-0.604,1.262,0.042,1.818c0.656,0.563,1.336,0.234,2.003-0.058
		c2.505-1.099,4.307-2.919,5.621-5.293C179.327,80.987,179.604,79.859,180.575,78.873z M138.787,114.75
		c8.859,2.508,17.704,2.678,27.051-0.134C156.452,110.856,147.62,111.94,138.787,114.75z M164.152,126.226
		c-7.225-3.699-20.524-2.692-26.041,0.229C146.801,128.965,155.315,129.066,164.152,126.226z M137.154,137.889
		c8.817,2.52,17.124,2.64,25.407-0.081C154.226,134.157,145.928,135.091,137.154,137.889z M86.362,114.224
		c-4.783-1.84-9.51-2.992-14.591-1.072c-3.93,1.486-8.092,1.907-12.305,1.184c-0.47-0.08-1.023-0.234-1.638,0.399
		C67.528,117.059,76.975,117.722,86.362,114.224z M63.688,126.495c8.313,2.384,16.552,2.505,24.827-0.646
		c-3.361-1.845-7.401-2.713-10.03-2.074C73.604,124.958,68.743,126.22,63.688,126.495z M126.215,126.453
		c-5.602-3.143-18.589-1.865-25.41,0.147C109.225,128.977,117.52,128.954,126.215,126.453z M125.667,114.701
		c-6.327-2.978-15.863-2.087-25.153,0.323C106.445,117.338,120.868,117.152,125.667,114.701z M65.06,137.601
		c6.43,3.319,22.39,2.592,25.325-0.63c-3.536-1.24-7.068-2.43-10.783-1.251C74.856,137.225,70.112,138.429,65.06,137.601z
		 M102.322,138.124c6.242,2.631,19.096,2.031,23.762-0.48C118.098,135.446,110.315,135.487,102.322,138.124z M177.928,114.765
		c5.781,2.562,23.019,2.524,25.541-0.119c-4.413-0.219-8.766-0.915-13.148-1.325C186.219,112.938,182.132,112.968,177.928,114.765z
		 M160.386,149.083c-7.48-3.313-14.525-2.518-22.022,0.077C145.897,151.046,152.953,151.386,160.386,149.083z M199.868,126.54
		c-7.888-0.22-15.77-3.725-23.663-0.08C184.088,128.88,191.974,129.011,199.868,126.54z M138.942,159.897
		c6.687,1.992,13.332,1.957,19.952-0.092C152.222,156.693,145.571,157.396,138.942,159.897z M158.195,170.449
		c-6.9-2.157-13.245-2.899-19.947,0.352C145.082,172.802,151.416,172.651,158.195,170.449z M197.014,137.912
		c-3.548,0.357-6.878-0.541-10.263-1.401c-3.962-1.01-7.777,0.211-11.541,1.419C182.481,140.185,189.737,140.531,197.014,137.912z
		 M71.885,149.665c6.73,1.465,13.341,1.223,19.85-1.102c-3.172-0.961-6.298-2.31-9.678-1.382
		C78.692,148.105,75.437,149.45,71.885,149.665z M76.788,171.052c5.912,1.51,11.792,1.911,17.72-0.776
		c-1.822-1.499-4.223-2.066-6.371-1.85C84.262,168.815,80.668,170.446,76.788,171.052z M124.896,149.119
		c-6.399-2.679-12.704-1.339-18.997,0.407C112.261,151.123,118.585,150.973,124.896,149.119z M125.174,160.026
		c-4.145-2.77-11.83-1.847-19.168,0.307C112.542,161.688,118.784,161.931,125.174,160.026z M92.384,159.405
		c-2.312-0.976-4.614-2.26-7.151-1.771c-3.679,0.709-7.099,2.49-10.923,2.742C80.437,161.863,86.446,161.656,92.384,159.405z
		 M125.082,170.637c-5.775-2.708-11.458-1.235-17.137,0.327C113.682,172.651,119.39,172.661,125.082,170.637z M172.364,160.059
		c5.892,1.604,11.772,1.777,17.664,0.251C184.141,159.595,178.282,157.14,172.364,160.059z M174.389,149.251
		c5.744,1.684,11.535,1.826,17.36,0.413C185.98,149.016,180.276,146.384,174.389,149.251z"/>
	<path fill-rule="evenodd" clip-rule="evenodd" fill="none" d="M180.575,78.873c-0.971,0.986-1.248,2.114-1.782,3.08
		c-1.314,2.374-3.116,4.194-5.621,5.293c-0.667,0.292-1.347,0.621-2.003,0.058c-0.646-0.556-0.267-1.227-0.042-1.818
		c1.495-3.957,2.87-7.968,4.567-11.838c1.417-3.235,1.45-6.319,0.06-9.497c-0.384-0.873-0.714-1.768-1.109-2.635
		c-0.733-1.604-1.515-1.747-2.563-0.313c-1.617,2.214-3.481,4.076-6.077,5.09c-0.533,0.208-1.063,0.678-1.651,0.167
		c-0.672-0.584-0.216-1.228,0.003-1.807c1.513-4.012,2.845-8.091,4.62-12.008c1.578-3.476,0.672-6.718-2.76-9.908
		c-5.436-5.052-11.766-6.982-18.955-4.617c-7.128,2.344-11.37,7.398-12.707,14.785c-0.584,3.233-0.091,6.407,1.006,9.495
		c3.969,11.172,7.935,22.347,11.893,33.524c1.383,3.909,1.354,3.982-2.728,4.606c-2.646,0.404-5.301,0.801-7.966,1.011
		c-2.294,0.18-2.954-0.728-2.646-3.024c0.696-5.225,1.066-10.478-0.537-15.59c-3.238-10.322-14.199-15.659-24.204-11.601
		c-4.209,1.707-8.01,1.698-12.236,0.083c-12.619-4.822-25.961,4.446-26.09,17.963c-0.026,2.785-0.343,5.604,0.493,8.35
		c0.361,1.185-0.347,1.805-1.322,2.171c-2.039,0.766-4.186,0.861-6.33,0.895c-1.209,0.019-1.543-0.905-1.505-1.823
		c0.854-20.564,5.935-39.602,20.594-54.944c8.851-9.262,20.07-14.109,32.525-16.313c6.825-1.206,13.721-1.732,20.642-1.415
		c10.621,0.485,20.94,2.405,30.549,7.222c12.919,6.476,21.489,16.896,27.102,29.987c3.913,9.125,6.087,18.659,6.813,28.541
		c0.117,1.602,0.282,3.204,0.317,4.81c0.07,3.28-0.484,3.811-3.695,3.634c-1.367-0.076-2.728-0.285-4.094-0.347
		c-3.281-0.147-6.545,0.011-9.792,0.58c-2.123,0.372-2.676-0.338-1.901-2.345c0.407-1.053,0.821-2.124,1.4-3.086
		c1.602-2.672,1.888-5.5,1.089-8.439C183.184,84.101,181.971,81.534,180.575,78.873z M120.624,53.38
		c0.17-2.247-0.273-4.41-0.792-6.551c-0.535-2.208-1.699-2.802-3.84-2.101c-11.206,3.667-16.628,13.941-13.294,25.188
		c0.667,2.246,1.664,2.686,3.677,1.502c3.342-1.967,6.536-4.152,9.421-6.759C119.139,61.638,121.327,58.115,120.624,53.38z"/>
	<path fill-rule="evenodd" clip-rule="evenodd" fill="none" d="M138.787,114.75c8.833-2.811,17.665-3.895,27.051-0.134
		C156.491,117.428,147.646,117.258,138.787,114.75z"/>
	<path fill-rule="evenodd" clip-rule="evenodd" fill="none" d="M164.152,126.226c-8.837,2.84-17.352,2.739-26.041,0.229
		C143.628,123.534,156.928,122.527,164.152,126.226z"/>
	<path fill-rule="evenodd" clip-rule="evenodd" fill="none" d="M137.154,137.889c8.773-2.798,17.071-3.732,25.407-0.081
		C154.278,140.529,145.972,140.409,137.154,137.889z"/>
	<path fill-rule="evenodd" clip-rule="evenodd" fill="none" d="M86.362,114.224c-9.387,3.498-18.834,2.835-28.535,0.511
		c0.615-0.634,1.168-0.479,1.638-0.399c4.213,0.724,8.375,0.303,12.305-1.184C76.852,111.232,81.579,112.384,86.362,114.224z"/>
	<path fill-rule="evenodd" clip-rule="evenodd" fill="none" d="M63.688,126.495c5.055-0.274,9.917-1.537,14.796-2.721
		c2.629-0.639,6.669,0.229,10.03,2.074C80.24,129,72.001,128.878,63.688,126.495z"/>
	<path fill-rule="evenodd" clip-rule="evenodd" fill="none" d="M126.215,126.453c-8.695,2.501-16.99,2.524-25.41,0.147
		C107.625,124.587,120.613,123.31,126.215,126.453z"/>
	<path fill-rule="evenodd" clip-rule="evenodd" fill="none" d="M125.667,114.701c-4.798,2.451-19.221,2.638-25.153,0.323
		C109.803,112.614,119.34,111.723,125.667,114.701z"/>
	<path fill-rule="evenodd" clip-rule="evenodd" fill="none" d="M65.06,137.601c5.052,0.828,9.796-0.376,14.542-1.881
		c3.715-1.179,7.248,0.011,10.783,1.251C87.45,140.193,71.49,140.92,65.06,137.601z"/>
	<path fill-rule="evenodd" clip-rule="evenodd" fill="none" d="M102.322,138.124c7.993-2.637,15.775-2.678,23.762-0.48
		C121.418,140.155,108.564,140.754,102.322,138.124z"/>
	<path fill-rule="evenodd" clip-rule="evenodd" fill="none" d="M177.928,114.765c4.204-1.797,8.291-1.827,12.393-1.444
		c4.383,0.41,8.735,1.106,13.148,1.325C200.946,117.29,183.709,117.327,177.928,114.765z"/>
	<path fill-rule="evenodd" clip-rule="evenodd" fill="none" d="M160.386,149.083c-7.433,2.303-14.488,1.963-22.022,0.077
		C145.86,146.566,152.905,145.771,160.386,149.083z"/>
	<path fill-rule="evenodd" clip-rule="evenodd" fill="none" d="M199.868,126.54c-7.895,2.472-15.78,2.341-23.663-0.08
		C184.099,122.815,191.98,126.32,199.868,126.54z"/>
	<path fill-rule="evenodd" clip-rule="evenodd" fill="none" d="M138.942,159.897c6.629-2.501,13.279-3.204,19.952-0.092
		C152.274,161.854,145.629,161.889,138.942,159.897z"/>
	<path fill-rule="evenodd" clip-rule="evenodd" fill="none" d="M158.195,170.449c-6.779,2.202-13.113,2.354-19.947,0.352
		C144.95,167.549,151.295,168.292,158.195,170.449z"/>
	<path fill-rule="evenodd" clip-rule="evenodd" fill="none" d="M197.014,137.912c-7.276,2.619-14.532,2.273-21.804,0.018
		c3.764-1.208,7.579-2.429,11.541-1.419C190.136,137.371,193.466,138.269,197.014,137.912z"/>
	<path fill-rule="evenodd" clip-rule="evenodd" fill="none" d="M71.885,149.665c3.552-0.215,6.808-1.56,10.171-2.483
		c3.38-0.928,6.506,0.421,9.678,1.382C85.226,150.887,78.615,151.129,71.885,149.665z"/>
	<path fill-rule="evenodd" clip-rule="evenodd" fill="none" d="M76.788,171.052c3.88-0.606,7.474-2.237,11.349-2.626
		c2.148-0.217,4.549,0.351,6.371,1.85C88.581,172.963,82.7,172.562,76.788,171.052z"/>
	<path fill-rule="evenodd" clip-rule="evenodd" fill="none" d="M124.896,149.119c-6.311,1.854-12.635,2.004-18.997,0.407
		C112.192,147.78,118.497,146.44,124.896,149.119z"/>
	<path fill-rule="evenodd" clip-rule="evenodd" fill="none" d="M125.174,160.026c-6.391,1.905-12.632,1.662-19.168,0.307
		C113.345,158.179,121.029,157.256,125.174,160.026z"/>
	<path fill-rule="evenodd" clip-rule="evenodd" fill="none" d="M92.384,159.405c-5.938,2.251-11.947,2.458-18.075,0.971
		c3.825-0.252,7.244-2.033,10.923-2.742C87.771,157.145,90.073,158.429,92.384,159.405z"/>
	<path fill-rule="evenodd" clip-rule="evenodd" fill="none" d="M125.082,170.637c-5.691,2.023-11.4,2.014-17.137,0.327
		C113.624,169.402,119.306,167.929,125.082,170.637z"/>
	<path fill-rule="evenodd" clip-rule="evenodd" fill="none" d="M172.364,160.059c5.918-2.919,11.776-0.464,17.664,0.251
		C184.137,161.836,178.256,161.664,172.364,160.059z"/>
	<path fill-rule="evenodd" clip-rule="evenodd" fill="none" d="M174.389,149.251c5.888-2.867,11.592-0.235,17.36,0.413
		C185.924,151.078,180.133,150.935,174.389,149.251z"/>
	<path fill-rule="evenodd" clip-rule="evenodd" d="M120.624,53.38c0.703,4.734-1.485,8.258-4.828,11.279
		c-2.885,2.607-6.079,4.792-9.421,6.759c-2.013,1.184-3.01,0.744-3.677-1.502c-3.334-11.246,2.088-21.521,13.294-25.188
		c2.141-0.701,3.305-0.107,3.84,2.101C120.351,48.97,120.794,51.133,120.624,53.38z"/>
</g>
</svg>
