<?xml version="1.0" encoding="utf-8"?>
<!-- Generator: Adobe Illustrator 16.0.0, SVG Export Plug-In . SVG Version: 6.00 Build 0)  -->
<!DOCTYPE svg PUBLIC "-//W3C//DTD SVG 1.1//EN" "http://www.w3.org/Graphics/SVG/1.1/DTD/svg11.dtd">
<svg version="1.1" id="Capa_1" xmlns="http://www.w3.org/2000/svg" xmlns:xlink="http://www.w3.org/1999/xlink" x="0px" y="0px"
	 width="1350px" height="295.485px" viewBox="0 0 1350 295.485" enable-background="new 0 0 1350 295.485" xml:space="preserve">
<g>
	<g>
		<path fill="#E2E2E2" d="M965.513,77.487c0,0-0.574-0.809-1.479-2.275c-0.37-0.776-0.912-1.751-1.334-2.913
			c-0.202-0.588-0.417-1.213-0.643-1.873c-0.203-0.669-0.332-1.389-0.512-2.143c-0.193-0.756-0.283-1.551-0.37-2.381
			c-0.092-0.83-0.204-1.701-0.183-2.584c-0.002-0.885-0.031-1.813,0.036-2.744c0.09-0.925,0.17-1.88,0.292-2.848
			c0.329-1.9,0.694-3.893,1.332-5.806c0.535-1.968,1.363-3.824,2.132-5.725c0.924-1.794,1.737-3.685,2.817-5.339
			c0.515-0.846,1.012-1.695,1.53-2.516c0.534-0.807,1.102-1.569,1.639-2.337c0.542-0.764,1.07-1.521,1.628-2.224
			c0.568-0.692,1.124-1.37,1.665-2.029c0.552-0.649,1.088-1.281,1.606-1.893c0.546-0.583,1.073-1.145,1.58-1.685
			c1.041-1.052,1.96-2.048,2.833-2.869c0.887-0.804,1.66-1.505,2.296-2.083c1.293-1.128,2.031-1.772,2.031-1.772l4.017,3.879
			c0,0-0.564,0.758-1.552,2.085c-1.016,1.299-2.452,3.156-4.092,5.418c-0.423,0.554-0.863,1.132-1.319,1.73
			c-0.43,0.612-0.873,1.246-1.33,1.897c-0.466,0.641-0.945,1.3-1.435,1.974c-0.462,0.687-0.933,1.388-1.412,2.102
			c-0.478,0.712-0.988,1.424-1.459,2.167c-0.45,0.751-0.935,1.494-1.408,2.253l-0.72,1.138l-0.656,1.17
			c-0.448,0.778-0.897,1.56-1.348,2.341c-0.775,1.603-1.683,3.17-2.338,4.785c-0.358,0.799-0.753,1.587-1.014,2.394
			c-0.296,0.798-0.64,1.583-0.9,2.372c-0.226,0.792-0.488,1.569-0.732,2.339c-0.22,0.771-0.362,1.535-0.566,2.282
			c-0.223,0.748-0.28,1.482-0.424,2.199c-0.063,0.361-0.126,0.715-0.188,1.063c-0.057,0.35-0.061,0.691-0.104,1.03
			c-0.06,0.676-0.155,1.337-0.179,1.963c-0.018,0.632-0.033,1.232-0.049,1.796c-0.044,0.581,0.007,1.091,0.022,1.585
			c0.016,0.501,0.029,0.961,0.042,1.377c0.083,0.856,0.148,1.53,0.192,1.988C965.494,77.24,965.513,77.487,965.513,77.487z"/>
		<g>
			<polygon fill="#E2E2E2" points="978.709,60.893 973.501,58.825 987.023,24.727 954.747,42.156 952.086,37.23 997.898,12.49 			
				"/>
		</g>
	</g>
</g>
<g>
	<g>
		<path fill-rule="evenodd" clip-rule="evenodd" fill="#AFAFAF" d="M1022.092,83.457c0-4.825-0.106-9.652,0.029-14.474
			c0.15-5.37,3.419-8.866,8.092-8.958c4.887-0.097,8.215,3.498,8.416,9.129c0.053,1.496,0.114,3.002,0.004,4.49
			c-0.233,3.119,1.207,3.893,4.104,5.314c5.733,2.815,12.614,2.467,17.631,6.834c1.424,1.238,3.168,0.677,4.785,0.863
			c4.232,0.49,7.773,2.555,7.877,6.948c0.311,13.062,1.945,26.265-3.594,38.873c-4.138,9.42-6.644,11.339-16.854,11.315
			c-4.326-0.012-8.659-0.139-12.976,0.066c-5.462,0.26-9.536-1.927-11.669-6.833c-4.392-10.103-10.57-18.382-20.929-23.069
			c-2.349-1.063-3.819-3.315-3.585-6.104c0.252-2.981,2.26-4.708,4.838-5.832c3.029-1.322,6.205-1.487,9.263-0.369
			c3.872,1.417,4.681-0.284,4.581-3.723c-0.141-4.82-0.035-9.648-0.035-14.473C1022.077,83.457,1022.085,83.457,1022.092,83.457z
			 M1027.388,87.381c-0.029,0-0.06,0-0.089,0c0,6.16,0.137,12.324-0.051,18.479c-0.113,3.74-1.974,5.257-5.557,3.068
			c-2.93-1.787-6.109-2.617-9.5-2.545c-1.146,0.025-2.448,0.396-2.758,1.734c-0.281,1.209,0.889,1.633,1.69,2.167
			c0.692,0.461,1.418,0.872,2.145,1.277c7.839,4.366,13.686,10.63,17.089,18.903c2.451,5.96,6.061,9.103,12.896,8.124
			c3.753-0.537,7.662-0.307,11.471-0.033c4.109,0.297,6.447-1.652,8.343-5.006c6.91-12.231,4.899-25.532,4.776-38.601
			c-0.016-1.633-1.16-2.813-2.986-2.674c-1.585,0.121-2.281,1.313-2.424,2.738c-0.164,1.652-0.082,3.328-0.229,4.983
			c-0.199,2.267,0.07,5.401-3.097,5.307c-3.198-0.096-2.618-3.312-2.765-5.509c-0.189-2.819-0.049-5.66-0.191-8.484
			c-0.094-1.85-0.947-3.296-3.082-3.111c-1.85,0.161-2.42,1.582-2.455,3.213c-0.072,3.329-0.043,6.66-0.135,9.988
			c-0.054,1.899-0.383,4.018-2.77,3.992c-2.417-0.025-2.621-2.197-2.656-4.072c-0.084-4.494-0.035-8.991-0.142-13.484
			c-0.048-1.995-0.778-3.773-3.169-3.623c-2.214,0.14-2.391,2.02-2.425,3.725c-0.089,4.493-0.022,8.992-0.196,13.48
			c-0.071,1.857-0.593,3.905-3.015,3.826c-2.148-0.07-2.403-2.016-2.595-3.682c-0.152-1.316-0.127-2.658-0.129-3.99
			c-0.011-8.158,0.115-16.32-0.075-24.475c-0.063-2.697,1.438-7.178-2.789-7.297c-4.349-0.123-2.96,4.371-3.075,7.096
			C1027.24,77.717,1027.388,82.552,1027.388,87.381z"/>
	</g>
</g>
<g>
	<g>
		<path fill="#E2E2E2" d="M1117.304,74.998c0,0,0.019-0.247,0.053-0.711c0.044-0.458,0.109-1.132,0.192-1.988
			c0.013-0.416,0.026-0.876,0.042-1.377c0.016-0.494,0.066-1.004,0.022-1.585c-0.016-0.564-0.031-1.164-0.049-1.797
			c-0.023-0.626-0.119-1.287-0.179-1.962c-0.044-0.339-0.048-0.681-0.104-1.03c-0.062-0.348-0.124-0.703-0.188-1.063
			c-0.144-0.717-0.201-1.452-0.424-2.2c-0.204-0.747-0.347-1.51-0.566-2.281c-0.244-0.77-0.507-1.546-0.732-2.339
			c-0.261-0.788-0.604-1.574-0.9-2.372c-0.261-0.807-0.655-1.595-1.014-2.394c-0.655-1.615-1.563-3.183-2.338-4.786
			c-0.45-0.781-0.899-1.563-1.348-2.341l-0.656-1.17l-0.72-1.138c-0.474-0.758-0.958-1.501-1.408-2.253
			c-0.471-0.742-0.981-1.454-1.459-2.167c-0.479-0.713-0.95-1.415-1.412-2.102c-0.489-0.673-0.969-1.333-1.435-1.974
			c-0.457-0.651-0.9-1.285-1.33-1.897c-0.456-0.598-0.896-1.175-1.319-1.73c-1.64-2.262-3.076-4.12-4.092-5.418
			c-0.987-1.327-1.552-2.085-1.552-2.085l4.017-3.879c0,0,0.738,0.645,2.03,1.773c0.637,0.577,1.41,1.278,2.297,2.083
			c0.872,0.821,1.792,1.816,2.833,2.869c0.507,0.54,1.034,1.103,1.58,1.685c0.519,0.611,1.055,1.243,1.605,1.893
			c0.542,0.659,1.098,1.336,1.666,2.029c0.558,0.704,1.086,1.46,1.628,2.224c0.537,0.768,1.104,1.53,1.639,2.337
			c0.519,0.821,1.016,1.67,1.53,2.516c1.08,1.654,1.894,3.545,2.817,5.34c0.769,1.9,1.597,3.756,2.132,5.725
			c0.638,1.913,1.003,3.906,1.332,5.806c0.122,0.968,0.202,1.923,0.292,2.848c0.067,0.931,0.038,1.858,0.036,2.744
			c0.021,0.884-0.091,1.755-0.183,2.584c-0.087,0.83-0.177,1.625-0.37,2.381c-0.18,0.754-0.309,1.474-0.512,2.143
			c-0.226,0.659-0.44,1.285-0.643,1.873c-0.422,1.162-0.964,2.136-1.334,2.913C1117.878,74.189,1117.304,74.998,1117.304,74.998z"/>
		<g>
			<polygon fill="#E2E2E2" points="1130.734,34.737 1128.069,39.667 1095.793,22.236 1109.315,56.334 1104.111,58.399 1084.918,10 
							"/>
		</g>
	</g>
</g>
<g>
	<g>
		<path fill="#AFAFAF" d="M122.462,174.406v1.134c0,1.002-0.228,1.865-0.682,2.591s-1.234,1.482-2.337,2.269
			c-1.114,0.797-1.816,1.421-2.108,1.87c-0.291,0.45-0.437,0.996-0.437,1.641c0,0.582,0.222,1.063,0.667,1.44
			c0.445,0.378,1.122,0.567,2.031,0.567c0.807,0,1.671-0.148,2.59-0.444c0.92-0.297,1.87-0.659,2.851-1.089l1.563,3.388
			c-1.001,0.572-2.133,1.035-3.395,1.388c-1.262,0.353-2.435,0.528-3.518,0.528c-2.248,0-4.014-0.493-5.296-1.479
			c-1.283-0.986-1.924-2.343-1.924-4.07c0-1.104,0.248-2.059,0.744-2.866c0.495-0.808,1.474-1.747,2.935-2.82
			c0.971-0.716,1.592-1.262,1.863-1.641c0.271-0.378,0.406-0.879,0.406-1.502v-0.904H122.462z M122.953,169.164
			c0,0.858-0.23,1.507-0.69,1.946s-1.129,0.659-2.008,0.659c-0.849,0-1.505-0.225-1.97-0.675c-0.465-0.449-0.698-1.093-0.698-1.931
			c0-0.828,0.238-1.47,0.713-1.924c0.475-0.455,1.126-0.683,1.955-0.683c0.858,0,1.522,0.226,1.993,0.675
			C122.718,167.682,122.953,168.326,122.953,169.164z"/>
		<path fill="#AFAFAF" d="M138.849,164.918c-1.788,0-3.173,0.672-4.154,2.016s-1.472,3.217-1.472,5.618
			c0,4.997,1.875,7.495,5.625,7.495c1.574,0,3.48-0.393,5.718-1.18v3.985c-1.839,0.767-3.894,1.149-6.162,1.149
			c-3.26,0-5.753-0.988-7.48-2.966s-2.59-4.816-2.59-8.516c0-2.33,0.424-4.371,1.272-6.124c0.848-1.752,2.067-3.096,3.656-4.031
			c1.589-0.935,3.451-1.402,5.587-1.402c2.177,0,4.364,0.526,6.561,1.579l-1.533,3.862c-0.838-0.398-1.681-0.745-2.529-1.042
			C140.499,165.066,139.667,164.918,138.849,164.918z"/>
		<path fill="#AFAFAF" d="M161.106,183.695l-0.628-2.192h-0.245c-0.501,0.798-1.211,1.413-2.131,1.848
			c-0.919,0.434-1.967,0.651-3.142,0.651c-2.014,0-3.531-0.539-4.553-1.617c-1.022-1.078-1.533-2.629-1.533-4.652v-11.175h4.675
			v10.01c0,1.236,0.22,2.164,0.659,2.782s1.14,0.928,2.1,0.928c1.308,0,2.253-0.438,2.836-1.311
			c0.583-0.874,0.874-2.322,0.874-4.346v-8.063h4.675v17.138H161.106z"/>
		<path fill="#AFAFAF" d="M180.481,183.695l-0.904-2.33h-0.123c-0.787,0.991-1.597,1.679-2.43,2.062
			c-0.833,0.384-1.919,0.575-3.257,0.575c-1.646,0-2.941-0.47-3.886-1.41c-0.945-0.94-1.418-2.279-1.418-4.017
			c0-1.818,0.636-3.16,1.908-4.023c1.272-0.863,3.191-1.341,5.756-1.434l2.974-0.092v-0.751c0-1.737-0.889-2.605-2.667-2.605
			c-1.37,0-2.979,0.413-4.829,1.241l-1.548-3.157c1.972-1.032,4.159-1.549,6.561-1.549c2.299,0,4.062,0.501,5.289,1.502
			c1.226,1.002,1.839,2.524,1.839,4.568v11.42H180.481z M179.102,175.755l-1.809,0.062c-1.359,0.041-2.371,0.286-3.035,0.735
			c-0.664,0.45-0.996,1.135-0.996,2.055c0,1.318,0.756,1.978,2.269,1.978c1.083,0,1.949-0.312,2.598-0.936
			c0.649-0.623,0.974-1.451,0.974-2.483V175.755z M173.905,164.673v-0.414c1.758-2.044,2.958-3.582,3.603-4.614h5.242v0.322
			c-0.531,0.531-1.438,1.32-2.721,2.368c-1.283,1.048-2.287,1.826-3.012,2.338H173.905z"/>
		<path fill="#AFAFAF" d="M204.379,183.695h-4.675v-10.01c0-1.236-0.22-2.164-0.659-2.782c-0.439-0.618-1.14-0.927-2.1-0.927
			c-1.308,0-2.253,0.437-2.836,1.311c-0.583,0.873-0.874,2.322-0.874,4.346v8.063h-4.675v-17.138h3.572l0.628,2.192h0.26
			c0.521-0.828,1.239-1.454,2.154-1.878s1.955-0.636,3.12-0.636c1.993,0,3.505,0.539,4.537,1.617s1.548,2.634,1.548,4.667V183.695z"
			/>
		<path fill="#AFAFAF" d="M216.412,180.277c0.817,0,1.798-0.179,2.943-0.537v3.479c-1.165,0.521-2.596,0.782-4.292,0.782
			c-1.87,0-3.232-0.473-4.085-1.418c-0.854-0.945-1.28-2.363-1.28-4.254v-8.262h-2.238v-1.978l2.576-1.563l1.349-3.618h2.989v3.648
			h4.798v3.511h-4.798v8.262c0,0.665,0.186,1.155,0.56,1.472C215.306,180.119,215.799,180.277,216.412,180.277z"/>
		<path fill="#AFAFAF" d="M238.393,175.096c0,2.79-0.736,4.972-2.207,6.546c-1.472,1.573-3.521,2.36-6.147,2.36
			c-1.646,0-3.096-0.36-4.354-1.081c-1.257-0.72-2.223-1.755-2.897-3.104c-0.674-1.35-1.012-2.923-1.012-4.722
			c0-2.8,0.73-4.977,2.192-6.53c1.461-1.553,3.516-2.329,6.162-2.329c1.646,0,3.097,0.357,4.354,1.072
			c1.257,0.716,2.223,1.743,2.897,3.081C238.056,171.729,238.393,173.298,238.393,175.096z M226.544,175.096
			c0,1.696,0.278,2.979,0.835,3.848c0.557,0.869,1.464,1.303,2.721,1.303c1.247,0,2.143-0.432,2.69-1.295s0.82-2.148,0.82-3.855
			c0-1.696-0.276-2.969-0.828-3.816c-0.552-0.849-1.456-1.272-2.713-1.272c-1.247,0-2.146,0.422-2.698,1.265
			S226.544,173.39,226.544,175.096z"/>
		<path fill="#AFAFAF" d="M262.368,178.606c0,1.758-0.611,3.096-1.832,4.016s-3.048,1.38-5.48,1.38c-1.247,0-2.31-0.084-3.188-0.253
			s-1.701-0.416-2.468-0.743v-3.863c0.869,0.409,1.847,0.751,2.936,1.027c1.088,0.275,2.046,0.414,2.874,0.414
			c1.696,0,2.544-0.491,2.544-1.472c0-0.368-0.112-0.667-0.337-0.897c-0.225-0.229-0.613-0.49-1.165-0.781s-1.288-0.631-2.208-1.02
			c-1.318-0.552-2.287-1.063-2.905-1.533c-0.618-0.47-1.068-1.009-1.349-1.617c-0.281-0.607-0.421-1.356-0.421-2.245
			c0-1.522,0.59-2.7,1.771-3.533s2.854-1.249,5.02-1.249c2.064,0,4.072,0.449,6.024,1.349l-1.41,3.372
			c-0.858-0.368-1.661-0.669-2.407-0.904c-0.746-0.235-1.507-0.353-2.284-0.353c-1.379,0-2.069,0.373-2.069,1.119
			c0,0.419,0.222,0.781,0.667,1.088c0.444,0.307,1.418,0.762,2.92,1.364c1.339,0.542,2.32,1.048,2.943,1.518
			c0.623,0.471,1.083,1.012,1.379,1.625S262.368,177.758,262.368,178.606z"/>
		<path fill="#AFAFAF" d="M273.772,184.002c-2.759,0-4.916-0.762-6.469-2.284c-1.554-1.522-2.33-3.679-2.33-6.469
			c0-2.871,0.718-5.092,2.154-6.66c1.436-1.568,3.42-2.353,5.955-2.353c2.422,0,4.308,0.689,5.656,2.069
			c1.349,1.379,2.023,3.285,2.023,5.717v2.27H269.71c0.051,1.328,0.444,2.365,1.18,3.111s1.768,1.119,3.096,1.119
			c1.032,0,2.008-0.107,2.928-0.322c0.92-0.215,1.88-0.557,2.882-1.026v3.617c-0.817,0.409-1.691,0.713-2.621,0.912
			C276.245,183.902,275.11,184.002,273.772,184.002z M273.113,169.563c-0.991,0-1.768,0.314-2.33,0.942
			c-0.562,0.629-0.884,1.521-0.966,2.675h6.561c-0.021-1.154-0.322-2.046-0.905-2.675
			C274.891,169.877,274.104,169.563,273.113,169.563z"/>
		<path fill="#AFAFAF" d="M308.538,183.695h-4.675v-10.01c0-2.473-0.92-3.709-2.759-3.709c-1.308,0-2.253,0.444-2.836,1.333
			c-0.583,0.89-0.874,2.33-0.874,4.323v8.063h-4.675v-23.852h4.675v4.859c0,0.378-0.036,1.268-0.107,2.667l-0.107,1.38h0.246
			c1.042-1.676,2.698-2.514,4.966-2.514c2.013,0,3.541,0.541,4.583,1.624c1.042,1.084,1.563,2.637,1.563,4.66V183.695z"/>
		<path fill="#AFAFAF" d="M324.234,183.695l-0.904-2.33h-0.123c-0.787,0.991-1.597,1.679-2.43,2.062
			c-0.833,0.384-1.919,0.575-3.257,0.575c-1.646,0-2.941-0.47-3.886-1.41c-0.945-0.94-1.418-2.279-1.418-4.017
			c0-1.818,0.636-3.16,1.908-4.023c1.272-0.863,3.191-1.341,5.756-1.434l2.974-0.092v-0.751c0-1.737-0.889-2.605-2.667-2.605
			c-1.37,0-2.979,0.413-4.829,1.241l-1.548-3.157c1.972-1.032,4.159-1.549,6.561-1.549c2.299,0,4.062,0.501,5.289,1.502
			c1.226,1.002,1.839,2.524,1.839,4.568v11.42H324.234z M322.854,175.755l-1.809,0.062c-1.359,0.041-2.371,0.286-3.035,0.735
			c-0.664,0.45-0.996,1.135-0.996,2.055c0,1.318,0.756,1.978,2.269,1.978c1.083,0,1.949-0.312,2.598-0.936
			c0.649-0.623,0.974-1.451,0.974-2.483V175.755z"/>
		<path fill="#AFAFAF" d="M348.131,183.695h-4.675v-10.01c0-1.236-0.22-2.164-0.659-2.782c-0.439-0.618-1.14-0.927-2.1-0.927
			c-1.308,0-2.253,0.437-2.836,1.311c-0.583,0.873-0.874,2.322-0.874,4.346v8.063h-4.675v-17.138h3.572l0.628,2.192h0.26
			c0.521-0.828,1.239-1.454,2.154-1.878s1.955-0.636,3.12-0.636c1.993,0,3.505,0.539,4.537,1.617s1.548,2.634,1.548,4.667V183.695z"
			/>
		<path fill="#AFAFAF" d="M360.9,162.128c0-1.522,0.848-2.284,2.544-2.284s2.544,0.762,2.544,2.284c0,0.726-0.212,1.29-0.636,1.693
			c-0.424,0.404-1.06,0.605-1.908,0.605C361.749,164.427,360.9,163.661,360.9,162.128z M365.775,183.695H361.1v-17.138h4.675
			V183.695z"/>
		<path fill="#AFAFAF" d="M386.499,183.695h-4.675v-10.01c0-1.236-0.22-2.164-0.659-2.782c-0.439-0.618-1.14-0.927-2.1-0.927
			c-1.308,0-2.253,0.437-2.836,1.311c-0.583,0.873-0.874,2.322-0.874,4.346v8.063h-4.675v-17.138h3.572l0.628,2.192h0.26
			c0.521-0.828,1.239-1.454,2.154-1.878s1.955-0.636,3.12-0.636c1.993,0,3.505,0.539,4.537,1.617s1.548,2.634,1.548,4.667V183.695z"
			/>
		<path fill="#AFAFAF" d="M398.271,184.002c-5.334,0-8.001-2.928-8.001-8.783c0-2.913,0.726-5.138,2.177-6.676
			s3.531-2.307,6.239-2.307c1.982,0,3.761,0.388,5.334,1.165l-1.38,3.617c-0.735-0.296-1.42-0.539-2.054-0.729
			c-0.634-0.188-1.268-0.283-1.901-0.283c-2.432,0-3.648,1.728-3.648,5.181c0,3.353,1.216,5.028,3.648,5.028
			c0.899,0,1.732-0.12,2.499-0.36s1.533-0.615,2.299-1.127v4.001c-0.756,0.48-1.52,0.813-2.292,0.996
			C400.419,183.91,399.446,184.002,398.271,184.002z"/>
		<path fill="#AFAFAF" d="M417.019,166.236c0.634,0,1.16,0.046,1.579,0.138l-0.353,4.384c-0.378-0.102-0.838-0.153-1.38-0.153
			c-1.492,0-2.654,0.384-3.487,1.149c-0.833,0.767-1.249,1.84-1.249,3.22v8.722h-4.675v-17.138h3.541l0.689,2.882h0.23
			c0.531-0.96,1.25-1.734,2.154-2.322C414.972,166.53,415.956,166.236,417.019,166.236z"/>
		<path fill="#AFAFAF" d="M429.465,184.002c-2.759,0-4.916-0.762-6.469-2.284c-1.554-1.522-2.33-3.679-2.33-6.469
			c0-2.871,0.718-5.092,2.154-6.66c1.436-1.568,3.42-2.353,5.955-2.353c2.422,0,4.308,0.689,5.656,2.069
			c1.349,1.379,2.023,3.285,2.023,5.717v2.27h-11.052c0.051,1.328,0.444,2.365,1.18,3.111s1.768,1.119,3.096,1.119
			c1.032,0,2.008-0.107,2.928-0.322c0.92-0.215,1.88-0.557,2.882-1.026v3.617c-0.817,0.409-1.691,0.713-2.621,0.912
			C431.938,183.902,430.804,184.002,429.465,184.002z M428.806,169.563c-0.991,0-1.768,0.314-2.33,0.942
			c-0.562,0.629-0.884,1.521-0.966,2.675h6.561c-0.021-1.154-0.322-2.046-0.905-2.675
			C430.584,169.877,429.797,169.563,428.806,169.563z"/>
		<path fill="#AFAFAF" d="M455.601,183.695h-4.675v-10.01c0-1.236-0.207-2.164-0.621-2.782s-1.065-0.927-1.955-0.927
			c-1.195,0-2.064,0.439-2.605,1.317c-0.542,0.88-0.813,2.325-0.813,4.339v8.063h-4.675v-17.138h3.572l0.628,2.192h0.26
			c0.46-0.787,1.124-1.402,1.993-1.848c0.869-0.444,1.865-0.666,2.989-0.666c2.565,0,4.302,0.838,5.212,2.514h0.414
			c0.46-0.797,1.137-1.415,2.031-1.854c0.894-0.439,1.903-0.659,3.027-0.659c1.941,0,3.411,0.498,4.407,1.494
			c0.996,0.996,1.494,2.593,1.494,4.79v11.175h-4.69v-10.01c0-1.236-0.207-2.164-0.621-2.782c-0.414-0.618-1.065-0.927-1.955-0.927
			c-1.145,0-2,0.408-2.567,1.226c-0.567,0.818-0.851,2.115-0.851,3.894V183.695z"/>
		<path fill="#AFAFAF" d="M478.839,184.002c-2.759,0-4.916-0.762-6.469-2.284c-1.554-1.522-2.33-3.679-2.33-6.469
			c0-2.871,0.718-5.092,2.154-6.66c1.436-1.568,3.42-2.353,5.955-2.353c2.422,0,4.308,0.689,5.656,2.069
			c1.349,1.379,2.023,3.285,2.023,5.717v2.27h-11.052c0.051,1.328,0.444,2.365,1.18,3.111s1.768,1.119,3.096,1.119
			c1.032,0,2.008-0.107,2.928-0.322c0.92-0.215,1.88-0.557,2.882-1.026v3.617c-0.817,0.409-1.691,0.713-2.621,0.912
			C481.312,183.902,480.177,184.002,478.839,184.002z M478.18,169.563c-0.991,0-1.768,0.314-2.33,0.942
			c-0.562,0.629-0.884,1.521-0.966,2.675h6.561c-0.021-1.154-0.322-2.046-0.905-2.675
			C479.958,169.877,479.171,169.563,478.18,169.563z"/>
		<path fill="#AFAFAF" d="M505.45,183.695h-4.675v-10.01c0-1.236-0.22-2.164-0.659-2.782c-0.439-0.618-1.14-0.927-2.1-0.927
			c-1.308,0-2.253,0.437-2.836,1.311c-0.583,0.873-0.874,2.322-0.874,4.346v8.063h-4.675v-17.138h3.572l0.628,2.192h0.26
			c0.521-0.828,1.239-1.454,2.154-1.878s1.955-0.636,3.12-0.636c1.993,0,3.505,0.539,4.537,1.617s1.548,2.634,1.548,4.667V183.695z"
			/>
		<path fill="#AFAFAF" d="M517.482,180.277c0.817,0,1.798-0.179,2.943-0.537v3.479c-1.165,0.521-2.596,0.782-4.292,0.782
			c-1.87,0-3.232-0.473-4.085-1.418c-0.854-0.945-1.28-2.363-1.28-4.254v-8.262h-2.238v-1.978l2.576-1.563l1.349-3.618h2.989v3.648
			h4.798v3.511h-4.798v8.262c0,0.665,0.186,1.155,0.56,1.472C516.376,180.119,516.869,180.277,517.482,180.277z"/>
		<path fill="#AFAFAF" d="M534.773,183.695l-0.904-2.33h-0.123c-0.787,0.991-1.597,1.679-2.43,2.062
			c-0.833,0.384-1.919,0.575-3.257,0.575c-1.646,0-2.941-0.47-3.886-1.41c-0.945-0.94-1.418-2.279-1.418-4.017
			c0-1.818,0.636-3.16,1.908-4.023c1.272-0.863,3.191-1.341,5.756-1.434l2.974-0.092v-0.751c0-1.737-0.889-2.605-2.667-2.605
			c-1.37,0-2.979,0.413-4.829,1.241l-1.548-3.157c1.972-1.032,4.159-1.549,6.561-1.549c2.299,0,4.062,0.501,5.289,1.502
			c1.226,1.002,1.839,2.524,1.839,4.568v11.42H534.773z M533.394,175.755l-1.809,0.062c-1.359,0.041-2.371,0.286-3.035,0.735
			c-0.664,0.45-0.996,1.135-0.996,2.055c0,1.318,0.756,1.978,2.269,1.978c1.083,0,1.949-0.312,2.598-0.936
			c0.649-0.623,0.974-1.451,0.974-2.483V175.755z"/>
		<path fill="#AFAFAF" d="M548.278,184.002c-2.013,0-3.595-0.782-4.744-2.346c-1.15-1.563-1.725-3.729-1.725-6.499
			c0-2.811,0.585-5,1.755-6.568c1.17-1.568,2.782-2.353,4.836-2.353c2.156,0,3.802,0.838,4.936,2.514h0.153
			c-0.235-1.277-0.353-2.417-0.353-3.418v-5.488h4.69v23.852h-3.587l-0.904-2.223h-0.199
			C552.074,183.159,550.455,184.002,548.278,184.002z M549.918,180.277c1.196,0,2.072-0.348,2.629-1.043
			c0.557-0.694,0.861-1.875,0.912-3.541v-0.506c0-1.839-0.284-3.157-0.851-3.954c-0.567-0.798-1.49-1.196-2.767-1.196
			c-1.042,0-1.852,0.442-2.43,1.326c-0.577,0.884-0.866,2.169-0.866,3.855c0,1.686,0.291,2.95,0.874,3.794
			C548.002,179.855,548.835,180.277,549.918,180.277z"/>
		<path fill="#AFAFAF" d="M578.292,175.096c0,2.79-0.736,4.972-2.207,6.546c-1.472,1.573-3.521,2.36-6.147,2.36
			c-1.646,0-3.096-0.36-4.354-1.081c-1.257-0.72-2.223-1.755-2.897-3.104c-0.674-1.35-1.012-2.923-1.012-4.722
			c0-2.8,0.73-4.977,2.192-6.53c1.461-1.553,3.516-2.329,6.162-2.329c1.646,0,3.097,0.357,4.354,1.072
			c1.257,0.716,2.223,1.743,2.897,3.081C577.955,171.729,578.292,173.298,578.292,175.096z M566.442,175.096
			c0,1.696,0.278,2.979,0.835,3.848c0.557,0.869,1.464,1.303,2.721,1.303c1.247,0,2.143-0.432,2.69-1.295s0.82-2.148,0.82-3.855
			c0-1.696-0.276-2.969-0.828-3.816c-0.552-0.849-1.456-1.272-2.713-1.272c-1.247,0-2.146,0.422-2.698,1.265
			S566.442,173.39,566.442,175.096z"/>
		<path fill="#AFAFAF" d="M122.118,221.367h-4.675v-23.852h4.675V221.367z"/>
		<path fill="#AFAFAF" d="M142.597,212.768c0,2.79-0.736,4.972-2.207,6.546c-1.472,1.573-3.521,2.36-6.147,2.36
			c-1.646,0-3.096-0.36-4.354-1.081c-1.257-0.72-2.223-1.755-2.897-3.104c-0.674-1.35-1.012-2.923-1.012-4.722
			c0-2.8,0.73-4.977,2.192-6.53c1.461-1.553,3.516-2.329,6.162-2.329c1.646,0,3.097,0.357,4.354,1.072
			c1.257,0.716,2.223,1.743,2.897,3.081C142.26,209.4,142.597,210.97,142.597,212.768z M130.748,212.768
			c0,1.696,0.278,2.979,0.835,3.848c0.557,0.869,1.464,1.303,2.721,1.303c1.247,0,2.143-0.432,2.69-1.295s0.82-2.148,0.82-3.855
			c0-1.696-0.276-2.969-0.828-3.816c-0.552-0.849-1.456-1.272-2.713-1.272c-1.247,0-2.146,0.422-2.698,1.265
			S130.748,211.062,130.748,212.768z"/>
		<path fill="#AFAFAF" d="M158.417,216.278c0,1.758-0.611,3.096-1.832,4.016s-3.048,1.38-5.48,1.38c-1.247,0-2.31-0.084-3.188-0.253
			s-1.701-0.416-2.468-0.743v-3.863c0.869,0.409,1.847,0.751,2.936,1.027c1.088,0.275,2.046,0.414,2.874,0.414
			c1.696,0,2.544-0.491,2.544-1.472c0-0.368-0.112-0.667-0.337-0.897c-0.225-0.229-0.613-0.49-1.165-0.781s-1.288-0.631-2.208-1.02
			c-1.318-0.552-2.287-1.063-2.905-1.533c-0.618-0.47-1.068-1.009-1.349-1.617c-0.281-0.607-0.421-1.356-0.421-2.245
			c0-1.522,0.59-2.7,1.771-3.533s2.854-1.249,5.02-1.249c2.064,0,4.072,0.449,6.024,1.349l-1.41,3.372
			c-0.858-0.368-1.661-0.669-2.407-0.904c-0.746-0.235-1.507-0.353-2.284-0.353c-1.379,0-2.069,0.373-2.069,1.119
			c0,0.419,0.222,0.781,0.667,1.088c0.444,0.307,1.418,0.762,2.92,1.364c1.339,0.542,2.32,1.048,2.943,1.518
			c0.623,0.471,1.083,1.012,1.379,1.625S158.417,215.43,158.417,216.278z"/>
		<path fill="#AFAFAF" d="M179.631,221.674c-2.013,0-3.592-0.73-4.736-2.192h-0.245c0.163,1.431,0.245,2.259,0.245,2.483v6.944
			h-4.675v-24.68h3.801l0.659,2.223h0.215c1.093-1.696,2.713-2.544,4.859-2.544c2.023,0,3.607,0.781,4.752,2.345
			s1.717,3.735,1.717,6.515c0,1.83-0.268,3.419-0.805,4.768s-1.3,2.376-2.292,3.081S180.97,221.674,179.631,221.674z
			 M178.252,207.648c-1.155,0-1.998,0.354-2.529,1.064c-0.531,0.711-0.807,1.884-0.828,3.519v0.506c0,1.839,0.273,3.157,0.82,3.955
			c0.547,0.797,1.413,1.195,2.598,1.195c2.095,0,3.143-1.727,3.143-5.182c0-1.686-0.258-2.95-0.774-3.793
			C180.166,208.069,179.355,207.648,178.252,207.648z"/>
		<path fill="#AFAFAF" d="M199.65,203.908c0.634,0,1.16,0.046,1.579,0.138l-0.353,4.384c-0.378-0.102-0.838-0.153-1.38-0.153
			c-1.492,0-2.654,0.384-3.487,1.149c-0.833,0.767-1.249,1.84-1.249,3.22v8.722h-4.675v-17.138h3.541l0.689,2.882h0.23
			c0.531-0.96,1.25-1.734,2.154-2.322C197.604,204.202,198.587,203.908,199.65,203.908z"/>
		<path fill="#AFAFAF" d="M212.098,221.674c-2.759,0-4.916-0.762-6.469-2.284c-1.554-1.522-2.33-3.679-2.33-6.469
			c0-2.871,0.718-5.092,2.154-6.66c1.436-1.568,3.42-2.353,5.955-2.353c2.422,0,4.308,0.689,5.656,2.069
			c1.349,1.379,2.023,3.285,2.023,5.717v2.27h-11.052c0.051,1.328,0.444,2.365,1.18,3.111s1.768,1.119,3.096,1.119
			c1.032,0,2.008-0.107,2.928-0.322c0.92-0.215,1.88-0.557,2.882-1.026v3.617c-0.817,0.409-1.691,0.713-2.621,0.912
			C214.57,221.574,213.436,221.674,212.098,221.674z M211.438,207.234c-0.991,0-1.768,0.314-2.33,0.942
			c-0.562,0.629-0.884,1.521-0.966,2.675h6.561c-0.021-1.154-0.322-2.046-0.905-2.675
			C213.217,207.549,212.43,207.234,211.438,207.234z"/>
		<path fill="#AFAFAF" d="M229.848,221.674c-5.334,0-8.001-2.928-8.001-8.783c0-2.913,0.726-5.138,2.177-6.676
			s3.531-2.307,6.239-2.307c1.982,0,3.761,0.388,5.334,1.165l-1.38,3.617c-0.735-0.296-1.42-0.539-2.054-0.729
			c-0.634-0.188-1.268-0.283-1.901-0.283c-2.432,0-3.648,1.728-3.648,5.181c0,3.353,1.216,5.028,3.648,5.028
			c0.899,0,1.732-0.12,2.499-0.36s1.533-0.615,2.299-1.127v4.001c-0.756,0.48-1.52,0.813-2.292,0.996
			C231.996,221.582,231.023,221.674,229.848,221.674z"/>
		<path fill="#AFAFAF" d="M238.831,199.8c0-1.522,0.848-2.284,2.544-2.284s2.544,0.762,2.544,2.284c0,0.726-0.212,1.29-0.636,1.693
			c-0.424,0.404-1.06,0.605-1.908,0.605C239.679,202.099,238.831,201.333,238.831,199.8z M243.705,221.367h-4.675v-17.138h4.675
			V221.367z"/>
		<path fill="#AFAFAF" d="M264.184,212.768c0,2.79-0.736,4.972-2.207,6.546c-1.472,1.573-3.521,2.36-6.147,2.36
			c-1.646,0-3.096-0.36-4.354-1.081c-1.257-0.72-2.223-1.755-2.897-3.104c-0.674-1.35-1.012-2.923-1.012-4.722
			c0-2.8,0.73-4.977,2.192-6.53c1.461-1.553,3.516-2.329,6.162-2.329c1.646,0,3.097,0.357,4.354,1.072
			c1.257,0.716,2.223,1.743,2.897,3.081C263.847,209.4,264.184,210.97,264.184,212.768z M252.335,212.768
			c0,1.696,0.278,2.979,0.835,3.848c0.557,0.869,1.464,1.303,2.721,1.303c1.247,0,2.143-0.432,2.69-1.295s0.82-2.148,0.82-3.855
			c0-1.696-0.276-2.969-0.828-3.816c-0.552-0.849-1.456-1.272-2.713-1.272c-1.247,0-2.146,0.422-2.698,1.265
			S252.335,211.062,252.335,212.768z"/>
		<path fill="#AFAFAF" d="M280.003,216.278c0,1.758-0.611,3.096-1.832,4.016s-3.048,1.38-5.48,1.38c-1.247,0-2.31-0.084-3.188-0.253
			s-1.701-0.416-2.468-0.743v-3.863c0.869,0.409,1.847,0.751,2.936,1.027c1.088,0.275,2.046,0.414,2.874,0.414
			c1.696,0,2.544-0.491,2.544-1.472c0-0.368-0.112-0.667-0.337-0.897c-0.225-0.229-0.613-0.49-1.165-0.781s-1.288-0.631-2.208-1.02
			c-1.318-0.552-2.287-1.063-2.905-1.533c-0.618-0.47-1.068-1.009-1.349-1.617c-0.281-0.607-0.421-1.356-0.421-2.245
			c0-1.522,0.59-2.7,1.771-3.533s2.854-1.249,5.02-1.249c2.064,0,4.072,0.449,6.024,1.349l-1.41,3.372
			c-0.858-0.368-1.661-0.669-2.407-0.904c-0.746-0.235-1.507-0.353-2.284-0.353c-1.379,0-2.069,0.373-2.069,1.119
			c0,0.419,0.222,0.781,0.667,1.088c0.444,0.307,1.418,0.762,2.92,1.364c1.339,0.542,2.32,1.048,2.943,1.518
			c0.623,0.471,1.083,1.012,1.379,1.625S280.003,215.43,280.003,216.278z"/>
		<path fill="#AFAFAF" d="M297.233,221.674c-2.013,0-3.595-0.782-4.744-2.346c-1.15-1.563-1.725-3.729-1.725-6.499
			c0-2.811,0.585-5,1.755-6.568c1.17-1.568,2.782-2.353,4.836-2.353c2.156,0,3.802,0.838,4.936,2.514h0.153
			c-0.235-1.277-0.353-2.417-0.353-3.418v-5.488h4.69v23.852h-3.587l-0.904-2.223h-0.199
			C301.029,220.831,299.41,221.674,297.233,221.674z M298.873,217.949c1.196,0,2.072-0.348,2.629-1.043
			c0.557-0.694,0.861-1.875,0.912-3.541v-0.506c0-1.839-0.284-3.157-0.851-3.954c-0.567-0.798-1.49-1.196-2.767-1.196
			c-1.042,0-1.852,0.442-2.43,1.326c-0.577,0.884-0.866,2.169-0.866,3.855c0,1.686,0.291,2.95,0.874,3.794
			C296.957,217.527,297.79,217.949,298.873,217.949z"/>
		<path fill="#AFAFAF" d="M319.429,221.674c-2.759,0-4.916-0.762-6.469-2.284c-1.554-1.522-2.33-3.679-2.33-6.469
			c0-2.871,0.718-5.092,2.154-6.66c1.436-1.568,3.42-2.353,5.955-2.353c2.422,0,4.308,0.689,5.656,2.069
			c1.349,1.379,2.023,3.285,2.023,5.717v2.27h-11.052c0.051,1.328,0.444,2.365,1.18,3.111s1.768,1.119,3.096,1.119
			c1.032,0,2.008-0.107,2.928-0.322c0.92-0.215,1.88-0.557,2.882-1.026v3.617c-0.817,0.409-1.691,0.713-2.621,0.912
			C321.901,221.574,320.767,221.674,319.429,221.674z M318.77,207.234c-0.991,0-1.768,0.314-2.33,0.942
			c-0.562,0.629-0.884,1.521-0.966,2.675h6.561c-0.021-1.154-0.322-2.046-0.905-2.675
			C320.548,207.549,319.761,207.234,318.77,207.234z"/>
		<path fill="#AFAFAF" d="M345.334,221.674c-5.334,0-8.001-2.928-8.001-8.783c0-2.913,0.726-5.138,2.177-6.676
			s3.531-2.307,6.239-2.307c1.982,0,3.761,0.388,5.334,1.165l-1.38,3.617c-0.735-0.296-1.42-0.539-2.054-0.729
			c-0.634-0.188-1.268-0.283-1.901-0.283c-2.432,0-3.648,1.728-3.648,5.181c0,3.353,1.216,5.028,3.648,5.028
			c0.899,0,1.732-0.12,2.499-0.36s1.533-0.615,2.299-1.127v4.001c-0.756,0.48-1.52,0.813-2.292,0.996
			C347.482,221.582,346.509,221.674,345.334,221.674z"/>
		<path fill="#AFAFAF" d="M365.399,221.367l-0.904-2.33h-0.123c-0.787,0.991-1.597,1.679-2.43,2.062
			c-0.833,0.384-1.919,0.575-3.257,0.575c-1.646,0-2.941-0.47-3.886-1.41c-0.945-0.94-1.418-2.279-1.418-4.017
			c0-1.818,0.636-3.16,1.908-4.023c1.272-0.863,3.191-1.341,5.756-1.434l2.974-0.092v-0.751c0-1.737-0.889-2.605-2.667-2.605
			c-1.37,0-2.979,0.413-4.829,1.241l-1.548-3.157c1.972-1.032,4.159-1.549,6.561-1.549c2.299,0,4.062,0.501,5.289,1.502
			c1.226,1.002,1.839,2.524,1.839,4.568v11.42H365.399z M364.02,213.427l-1.809,0.062c-1.359,0.041-2.371,0.286-3.035,0.735
			c-0.664,0.45-0.996,1.135-0.996,2.055c0,1.318,0.756,1.978,2.269,1.978c1.083,0,1.949-0.312,2.598-0.936
			c0.649-0.623,0.974-1.451,0.974-2.483V213.427z"/>
		<path fill="#AFAFAF" d="M378.904,221.674c-2.013,0-3.595-0.782-4.744-2.346c-1.15-1.563-1.725-3.729-1.725-6.499
			c0-2.811,0.585-5,1.755-6.568c1.17-1.568,2.782-2.353,4.836-2.353c2.156,0,3.802,0.838,4.936,2.514h0.153
			c-0.235-1.277-0.353-2.417-0.353-3.418v-5.488h4.69v23.852h-3.587l-0.904-2.223h-0.199
			C382.7,220.831,381.081,221.674,378.904,221.674z M380.544,217.949c1.196,0,2.072-0.348,2.629-1.043
			c0.557-0.694,0.861-1.875,0.912-3.541v-0.506c0-1.839-0.284-3.157-0.851-3.954c-0.567-0.798-1.49-1.196-2.767-1.196
			c-1.042,0-1.852,0.442-2.43,1.326c-0.577,0.884-0.866,2.169-0.866,3.855c0,1.686,0.291,2.95,0.874,3.794
			C378.628,217.527,379.461,217.949,380.544,217.949z"/>
		<path fill="#AFAFAF" d="M404.227,221.367l-0.904-2.33H403.2c-0.787,0.991-1.597,1.679-2.43,2.062
			c-0.833,0.384-1.919,0.575-3.257,0.575c-1.646,0-2.941-0.47-3.886-1.41c-0.945-0.94-1.418-2.279-1.418-4.017
			c0-1.818,0.636-3.16,1.908-4.023c1.272-0.863,3.191-1.341,5.756-1.434l2.974-0.092v-0.751c0-1.737-0.889-2.605-2.667-2.605
			c-1.37,0-2.979,0.413-4.829,1.241l-1.548-3.157c1.972-1.032,4.159-1.549,6.561-1.549c2.299,0,4.062,0.501,5.289,1.502
			c1.226,1.002,1.839,2.524,1.839,4.568v11.42H404.227z M402.848,213.427l-1.809,0.062c-1.359,0.041-2.371,0.286-3.035,0.735
			c-0.664,0.45-0.996,1.135-0.996,2.055c0,1.318,0.756,1.978,2.269,1.978c1.083,0,1.949-0.312,2.598-0.936
			c0.649-0.623,0.974-1.451,0.974-2.483V213.427z"/>
		<path fill="#AFAFAF" d="M429.872,221.674c-2.013,0-3.592-0.73-4.736-2.192h-0.245c0.163,1.431,0.245,2.259,0.245,2.483v6.944
			h-4.675v-24.68h3.801l0.659,2.223h0.215c1.093-1.696,2.713-2.544,4.859-2.544c2.023,0,3.607,0.781,4.752,2.345
			s1.717,3.735,1.717,6.515c0,1.83-0.268,3.419-0.805,4.768s-1.3,2.376-2.292,3.081S431.21,221.674,429.872,221.674z
			 M428.492,207.648c-1.155,0-1.998,0.354-2.529,1.064c-0.531,0.711-0.807,1.884-0.828,3.519v0.506c0,1.839,0.273,3.157,0.82,3.955
			c0.547,0.797,1.413,1.195,2.598,1.195c2.095,0,3.143-1.727,3.143-5.182c0-1.686-0.258-2.95-0.774-3.793
			C430.406,208.069,429.596,207.648,428.492,207.648z"/>
		<path fill="#AFAFAF" d="M449.891,203.908c0.634,0,1.16,0.046,1.579,0.138l-0.353,4.384c-0.378-0.102-0.838-0.153-1.38-0.153
			c-1.492,0-2.654,0.384-3.487,1.149c-0.833,0.767-1.249,1.84-1.249,3.22v8.722h-4.675v-17.138h3.541l0.689,2.882h0.23
			c0.531-0.96,1.25-1.734,2.154-2.322C447.845,204.202,448.828,203.908,449.891,203.908z"/>
		<path fill="#AFAFAF" d="M470.155,212.768c0,2.79-0.736,4.972-2.207,6.546c-1.472,1.573-3.521,2.36-6.147,2.36
			c-1.646,0-3.096-0.36-4.354-1.081c-1.257-0.72-2.223-1.755-2.897-3.104c-0.674-1.35-1.012-2.923-1.012-4.722
			c0-2.8,0.73-4.977,2.192-6.53c1.461-1.553,3.516-2.329,6.162-2.329c1.646,0,3.097,0.357,4.354,1.072
			c1.257,0.716,2.223,1.743,2.897,3.081C469.818,209.4,470.155,210.97,470.155,212.768z M458.306,212.768
			c0,1.696,0.278,2.979,0.835,3.848c0.557,0.869,1.464,1.303,2.721,1.303c1.247,0,2.143-0.432,2.69-1.295s0.82-2.148,0.82-3.855
			c0-1.696-0.276-2.969-0.828-3.816c-0.552-0.849-1.456-1.272-2.713-1.272c-1.247,0-2.146,0.422-2.698,1.265
			S458.306,211.062,458.306,212.768z"/>
		<path fill="#AFAFAF" d="M479.445,221.674c-2.013,0-3.595-0.782-4.744-2.346c-1.15-1.563-1.725-3.729-1.725-6.499
			c0-2.811,0.585-5,1.755-6.568c1.17-1.568,2.782-2.353,4.836-2.353c2.156,0,3.802,0.838,4.936,2.514h0.153
			c-0.235-1.277-0.353-2.417-0.353-3.418v-5.488h4.69v23.852h-3.587l-0.904-2.223h-0.199
			C483.241,220.831,481.622,221.674,479.445,221.674z M481.085,217.949c1.196,0,2.072-0.348,2.629-1.043
			c0.557-0.694,0.861-1.875,0.912-3.541v-0.506c0-1.839-0.284-3.157-0.851-3.954c-0.567-0.798-1.49-1.196-2.767-1.196
			c-1.042,0-1.852,0.442-2.43,1.326c-0.577,0.884-0.866,2.169-0.866,3.855c0,1.686,0.291,2.95,0.874,3.794
			C479.169,217.527,480.002,217.949,481.085,217.949z"/>
		<path fill="#AFAFAF" d="M506.024,221.367l-0.628-2.192h-0.245c-0.501,0.798-1.211,1.413-2.131,1.848
			c-0.919,0.434-1.967,0.651-3.142,0.651c-2.014,0-3.531-0.539-4.553-1.617c-1.022-1.078-1.533-2.629-1.533-4.652v-11.175h4.675
			v10.01c0,1.236,0.22,2.164,0.659,2.782s1.14,0.928,2.1,0.928c1.308,0,2.253-0.438,2.836-1.311
			c0.583-0.874,0.874-2.322,0.874-4.346v-8.063h4.675v17.138H506.024z"/>
		<path fill="#AFAFAF" d="M521.476,221.674c-5.334,0-8.001-2.928-8.001-8.783c0-2.913,0.726-5.138,2.177-6.676
			s3.531-2.307,6.239-2.307c1.982,0,3.761,0.388,5.334,1.165l-1.38,3.617c-0.735-0.296-1.42-0.539-2.054-0.729
			c-0.634-0.188-1.268-0.283-1.901-0.283c-2.432,0-3.648,1.728-3.648,5.181c0,3.353,1.216,5.028,3.648,5.028
			c0.899,0,1.732-0.12,2.499-0.36s1.533-0.615,2.299-1.127v4.001c-0.756,0.48-1.52,0.813-2.292,0.996
			C523.625,221.582,522.651,221.674,521.476,221.674z"/>
		<path fill="#AFAFAF" d="M537.877,217.949c0.817,0,1.798-0.179,2.943-0.537v3.479c-1.165,0.521-2.596,0.782-4.292,0.782
			c-1.87,0-3.232-0.473-4.085-1.418c-0.854-0.945-1.28-2.363-1.28-4.254v-8.262h-2.238v-1.978l2.576-1.563l1.349-3.618h2.989v3.648
			h4.798v3.511h-4.798v8.262c0,0.665,0.186,1.155,0.56,1.472C536.771,217.791,537.264,217.949,537.877,217.949z"/>
		<path fill="#AFAFAF" d="M559.859,212.768c0,2.79-0.736,4.972-2.207,6.546c-1.472,1.573-3.521,2.36-6.147,2.36
			c-1.646,0-3.096-0.36-4.354-1.081c-1.257-0.72-2.223-1.755-2.897-3.104c-0.674-1.35-1.012-2.923-1.012-4.722
			c0-2.8,0.73-4.977,2.192-6.53c1.461-1.553,3.516-2.329,6.162-2.329c1.646,0,3.097,0.357,4.354,1.072
			c1.257,0.716,2.223,1.743,2.897,3.081C559.522,209.4,559.859,210.97,559.859,212.768z M548.01,212.768
			c0,1.696,0.278,2.979,0.835,3.848c0.557,0.869,1.464,1.303,2.721,1.303c1.247,0,2.143-0.432,2.69-1.295s0.82-2.148,0.82-3.855
			c0-1.696-0.276-2.969-0.828-3.816c-0.552-0.849-1.456-1.272-2.713-1.272c-1.247,0-2.146,0.422-2.698,1.265
			S548.01,211.062,548.01,212.768z"/>
		<path fill="#AFAFAF" d="M565.5,213.933v-1.134c0-0.981,0.209-1.835,0.628-2.561c0.419-0.726,1.185-1.497,2.299-2.314
			c1.073-0.767,1.78-1.39,2.123-1.87c0.342-0.48,0.513-1.017,0.513-1.609c0-0.664-0.245-1.17-0.736-1.518
			c-0.49-0.348-1.175-0.521-2.054-0.521c-1.533,0-3.28,0.501-5.243,1.503l-1.671-3.357c2.279-1.277,4.696-1.916,7.25-1.916
			c2.105,0,3.779,0.506,5.021,1.518c1.241,1.012,1.862,2.36,1.862,4.047c0,1.124-0.256,2.095-0.767,2.912
			c-0.511,0.818-1.482,1.737-2.913,2.76c-0.981,0.726-1.602,1.277-1.862,1.655c-0.26,0.378-0.391,0.874-0.391,1.486v0.92H565.5z
			 M565.01,219.175c0-0.858,0.23-1.507,0.69-1.946c0.459-0.439,1.129-0.659,2.008-0.659c0.848,0,1.505,0.225,1.97,0.675
			c0.465,0.449,0.698,1.093,0.698,1.931c0,0.808-0.235,1.444-0.706,1.909c-0.47,0.465-1.124,0.697-1.962,0.697
			c-0.858,0-1.523-0.228-1.993-0.683C565.245,220.645,565.01,220.003,565.01,219.175z"/>
	</g>
</g>
<g>
	<g>
		<path fill="#AFAFAF" d="M919.516,171.902v1.134c0,1.002-0.227,1.865-0.682,2.591s-1.234,1.482-2.338,2.269
			c-1.113,0.797-1.816,1.421-2.107,1.87c-0.291,0.45-0.437,0.996-0.437,1.641c0,0.582,0.222,1.063,0.667,1.44
			c0.444,0.378,1.121,0.567,2.031,0.567c0.807,0,1.67-0.148,2.59-0.444c0.92-0.297,1.87-0.659,2.852-1.089l1.563,3.388
			c-1.001,0.572-2.133,1.035-3.395,1.388s-2.436,0.528-3.518,0.528c-2.248,0-4.014-0.493-5.297-1.479
			c-1.282-0.986-1.924-2.343-1.924-4.07c0-1.104,0.248-2.059,0.744-2.866c0.495-0.808,1.474-1.747,2.936-2.82
			c0.971-0.716,1.592-1.262,1.862-1.641c0.271-0.378,0.406-0.879,0.406-1.502v-0.904H919.516z M920.007,166.66
			c0,0.858-0.229,1.507-0.69,1.946c-0.459,0.439-1.129,0.659-2.008,0.659c-0.848,0-1.504-0.225-1.969-0.675
			c-0.466-0.449-0.698-1.093-0.698-1.931c0-0.828,0.237-1.47,0.713-1.924c0.476-0.455,1.126-0.683,1.954-0.683
			c0.859,0,1.523,0.226,1.993,0.675S920.007,165.822,920.007,166.66z"/>
		<path fill="#AFAFAF" d="M935.902,162.414c-1.788,0-3.173,0.672-4.154,2.016c-0.98,1.344-1.471,3.217-1.471,5.618
			c0,4.997,1.875,7.495,5.625,7.495c1.574,0,3.48-0.393,5.718-1.18v3.985c-1.839,0.767-3.894,1.149-6.162,1.149
			c-3.26,0-5.753-0.988-7.48-2.966s-2.591-4.816-2.591-8.516c0-2.33,0.424-4.371,1.272-6.124c0.849-1.752,2.067-3.096,3.656-4.031
			c1.589-0.935,3.451-1.402,5.587-1.402c2.177,0,4.363,0.526,6.561,1.579l-1.533,3.862c-0.838-0.398-1.681-0.745-2.528-1.042
			C937.553,162.563,936.721,162.414,935.902,162.414z"/>
		<path fill="#AFAFAF" d="M958.16,181.191l-0.629-2.192h-0.245c-0.501,0.798-1.211,1.413-2.131,1.848
			c-0.919,0.434-1.968,0.651-3.142,0.651c-2.014,0-3.531-0.539-4.553-1.617c-1.022-1.078-1.533-2.629-1.533-4.652v-11.175h4.675
			v10.01c0,1.236,0.22,2.164,0.659,2.782s1.14,0.928,2.1,0.928c1.309,0,2.254-0.438,2.836-1.311
			c0.583-0.874,0.874-2.322,0.874-4.346v-8.063h4.675v17.138H958.16z"/>
		<path fill="#AFAFAF" d="M977.535,181.191l-0.904-2.33h-0.123c-0.787,0.991-1.597,1.679-2.43,2.062
			c-0.832,0.384-1.918,0.575-3.257,0.575c-1.646,0-2.94-0.47-3.886-1.41s-1.418-2.279-1.418-4.017c0-1.818,0.637-3.16,1.908-4.023
			c1.272-0.863,3.191-1.341,5.756-1.434l2.975-0.092v-0.751c0-1.737-0.89-2.605-2.668-2.605c-1.369,0-2.979,0.413-4.828,1.241
			l-1.549-3.157c1.973-1.032,4.16-1.549,6.561-1.549c2.3,0,4.063,0.501,5.289,1.502c1.227,1.002,1.84,2.524,1.84,4.568v11.42
			H977.535z M976.156,173.251l-1.81,0.062c-1.358,0.041-2.37,0.286-3.035,0.735c-0.664,0.45-0.996,1.135-0.996,2.055
			c0,1.318,0.756,1.978,2.269,1.978c1.083,0,1.949-0.312,2.598-0.936c0.649-0.623,0.975-1.451,0.975-2.483V173.251z
			 M970.959,162.169v-0.414c1.758-2.044,2.959-3.582,3.603-4.614h5.242v0.322c-0.531,0.531-1.438,1.32-2.721,2.368
			s-2.286,1.826-3.013,2.338H970.959z"/>
		<path fill="#AFAFAF" d="M1001.434,181.191h-4.676v-10.01c0-1.236-0.221-2.164-0.659-2.782c-0.439-0.618-1.14-0.927-2.101-0.927
			c-1.308,0-2.253,0.437-2.836,1.311c-0.582,0.873-0.873,2.322-0.873,4.346v8.063h-4.676v-17.138h3.572l0.629,2.192h0.26
			c0.521-0.828,1.239-1.454,2.154-1.878c0.914-0.424,1.954-0.636,3.119-0.636c1.992,0,3.505,0.539,4.537,1.617
			s1.549,2.634,1.549,4.667V181.191z"/>
		<path fill="#AFAFAF" d="M1013.466,177.773c0.817,0,1.798-0.179,2.943-0.537v3.479c-1.165,0.521-2.597,0.782-4.292,0.782
			c-1.87,0-3.232-0.473-4.086-1.418s-1.279-2.363-1.279-4.254v-8.262h-2.238v-1.978l2.576-1.563l1.348-3.618h2.99v3.648h4.797v3.511
			h-4.797v8.262c0,0.665,0.186,1.155,0.559,1.472C1012.359,177.615,1012.853,177.773,1013.466,177.773z"/>
		<path fill="#AFAFAF" d="M1035.447,172.592c0,2.79-0.736,4.972-2.207,6.546c-1.473,1.573-3.521,2.36-6.147,2.36
			c-1.646,0-3.097-0.36-4.354-1.081c-1.257-0.72-2.223-1.755-2.897-3.104c-0.674-1.35-1.012-2.923-1.012-4.722
			c0-2.8,0.73-4.977,2.192-6.53c1.462-1.553,3.516-2.329,6.162-2.329c1.646,0,3.097,0.357,4.354,1.072
			c1.257,0.716,2.223,1.743,2.897,3.081C1035.109,169.225,1035.447,170.794,1035.447,172.592z M1023.598,172.592
			c0,1.696,0.278,2.979,0.836,3.848c0.557,0.869,1.463,1.303,2.721,1.303c1.246,0,2.143-0.432,2.689-1.295s0.82-2.148,0.82-3.855
			c0-1.696-0.275-2.969-0.828-3.816c-0.551-0.849-1.455-1.272-2.713-1.272c-1.246,0-2.146,0.422-2.697,1.265
			S1023.598,170.886,1023.598,172.592z"/>
		<path fill="#AFAFAF" d="M1054.424,181.498c-5.334,0-8.002-2.928-8.002-8.783c0-2.913,0.727-5.138,2.178-6.676
			s3.53-2.307,6.238-2.307c1.982,0,3.761,0.388,5.334,1.165l-1.379,3.617c-0.736-0.296-1.421-0.539-2.055-0.729
			c-0.633-0.188-1.268-0.283-1.9-0.283c-2.432,0-3.648,1.728-3.648,5.181c0,3.353,1.217,5.028,3.648,5.028
			c0.898,0,1.732-0.12,2.498-0.36c0.768-0.24,1.533-0.615,2.3-1.127v4.001c-0.757,0.48-1.521,0.813-2.292,0.996
			C1056.572,181.406,1055.6,181.498,1054.424,181.498z"/>
		<path fill="#AFAFAF" d="M1079.18,172.592c0,2.79-0.736,4.972-2.207,6.546c-1.472,1.573-3.521,2.36-6.146,2.36
			c-1.646,0-3.097-0.36-4.354-1.081c-1.258-0.72-2.223-1.755-2.897-3.104c-0.675-1.35-1.012-2.923-1.012-4.722
			c0-2.8,0.73-4.977,2.192-6.53c1.461-1.553,3.516-2.329,6.162-2.329c1.645,0,3.096,0.357,4.354,1.072
			c1.256,0.716,2.223,1.743,2.896,3.081C1078.843,169.225,1079.18,170.794,1079.18,172.592z M1067.33,172.592
			c0,1.696,0.279,2.979,0.836,3.848c0.557,0.869,1.464,1.303,2.721,1.303c1.247,0,2.144-0.432,2.69-1.295s0.82-2.148,0.82-3.855
			c0-1.696-0.276-2.969-0.828-3.816c-0.552-0.849-1.456-1.272-2.713-1.272c-1.247,0-2.146,0.422-2.698,1.265
			C1067.607,169.61,1067.33,170.886,1067.33,172.592z"/>
		<path fill="#AFAFAF" d="M1094.999,176.103c0,1.758-0.61,3.096-1.832,4.016s-3.048,1.38-5.479,1.38
			c-1.248,0-2.311-0.084-3.189-0.253s-1.701-0.416-2.467-0.743v-3.863c0.868,0.409,1.847,0.751,2.936,1.027
			c1.088,0.275,2.046,0.414,2.873,0.414c1.697,0,2.545-0.491,2.545-1.472c0-0.368-0.112-0.667-0.337-0.897
			c-0.226-0.229-0.613-0.49-1.165-0.781s-1.287-0.631-2.207-1.02c-1.318-0.552-2.287-1.063-2.905-1.533
			c-0.618-0.47-1.067-1.009-1.349-1.617c-0.281-0.607-0.422-1.356-0.422-2.245c0-1.522,0.59-2.7,1.771-3.533
			s2.854-1.249,5.021-1.249c2.064,0,4.072,0.449,6.023,1.349l-1.41,3.372c-0.857-0.368-1.66-0.669-2.406-0.904
			s-1.508-0.353-2.284-0.353c-1.38,0-2.069,0.373-2.069,1.119c0,0.419,0.223,0.781,0.667,1.088s1.418,0.762,2.92,1.364
			c1.339,0.542,2.319,1.048,2.943,1.518c0.623,0.471,1.083,1.012,1.38,1.625C1094.851,174.523,1094.999,175.254,1094.999,176.103z"
			/>
		<path fill="#AFAFAF" d="M1105.867,177.773c0.817,0,1.799-0.179,2.943-0.537v3.479c-1.165,0.521-2.596,0.782-4.293,0.782
			c-1.869,0-3.231-0.473-4.084-1.418c-0.854-0.945-1.28-2.363-1.28-4.254v-8.262h-2.238v-1.978l2.575-1.563l1.35-3.618h2.988v3.648
			h4.799v3.511h-4.799v8.262c0,0.665,0.187,1.155,0.561,1.472C1104.761,177.615,1105.254,177.773,1105.867,177.773z"/>
		<path fill="#AFAFAF" d="M1123.158,181.191l-0.904-2.33h-0.123c-0.787,0.991-1.598,1.679-2.43,2.062
			c-0.833,0.384-1.919,0.575-3.258,0.575c-1.645,0-2.94-0.47-3.885-1.41c-0.945-0.94-1.418-2.279-1.418-4.017
			c0-1.818,0.636-3.16,1.908-4.023c1.271-0.863,3.19-1.341,5.756-1.434l2.974-0.092v-0.751c0-1.737-0.89-2.605-2.667-2.605
			c-1.37,0-2.979,0.413-4.829,1.241l-1.548-3.157c1.973-1.032,4.159-1.549,6.561-1.549c2.299,0,4.063,0.501,5.289,1.502
			c1.226,1.002,1.839,2.524,1.839,4.568v11.42H1123.158z M1121.778,173.251l-1.81,0.062c-1.358,0.041-2.37,0.286-3.035,0.735
			c-0.664,0.45-0.996,1.135-0.996,2.055c0,1.318,0.756,1.978,2.27,1.978c1.082,0,1.949-0.312,2.598-0.936
			c0.648-0.623,0.974-1.451,0.974-2.483V173.251z"/>
		<path fill="#AFAFAF" d="M1140.77,163.732c2.023,0,3.607,0.789,4.752,2.368c1.145,1.578,1.717,3.742,1.717,6.491
			c0,2.831-0.59,5.023-1.77,6.576c-1.181,1.554-2.787,2.33-4.821,2.33c-2.013,0-3.592-0.73-4.736-2.192h-0.321l-0.782,1.886h-3.571
			V157.34h4.675v5.549c0,0.705-0.062,1.835-0.185,3.388h0.185C1137.004,164.58,1138.624,163.732,1140.77,163.732z M1139.268,167.473
			c-1.154,0-1.998,0.354-2.529,1.064c-0.531,0.711-0.807,1.884-0.827,3.519v0.506c0,1.839,0.272,3.157,0.819,3.955
			c0.547,0.797,1.413,1.195,2.599,1.195c0.96,0,1.725-0.442,2.292-1.326c0.566-0.884,0.851-2.169,0.851-3.855
			c0-1.686-0.286-2.95-0.858-3.793C1141.041,167.894,1140.26,167.473,1139.268,167.473z"/>
		<path fill="#AFAFAF" d="M1161.985,181.191l-0.904-2.33h-0.122c-0.787,0.991-1.598,1.679-2.43,2.062
			c-0.834,0.384-1.92,0.575-3.258,0.575c-1.646,0-2.941-0.47-3.886-1.41c-0.945-0.94-1.418-2.279-1.418-4.017
			c0-1.818,0.636-3.16,1.908-4.023s3.19-1.341,5.756-1.434l2.974-0.092v-0.751c0-1.737-0.889-2.605-2.667-2.605
			c-1.37,0-2.979,0.413-4.829,1.241l-1.547-3.157c1.972-1.032,4.158-1.549,6.561-1.549c2.299,0,4.062,0.501,5.288,1.502
			c1.226,1.002,1.839,2.524,1.839,4.568v11.42H1161.985z M1160.605,173.251l-1.809,0.062c-1.359,0.041-2.371,0.286-3.035,0.735
			c-0.664,0.45-0.996,1.135-0.996,2.055c0,1.318,0.756,1.978,2.269,1.978c1.083,0,1.949-0.312,2.599-0.936
			c0.648-0.623,0.973-1.451,0.973-2.483V173.251z"/>
		<path fill="#AFAFAF" d="M879.585,219.17c-5.334,0-8.001-2.928-8.001-8.783c0-2.913,0.725-5.138,2.176-6.676
			s3.531-2.307,6.239-2.307c1.982,0,3.761,0.388,5.335,1.165l-1.381,3.617c-0.734-0.296-1.42-0.539-2.053-0.729
			c-0.635-0.188-1.268-0.283-1.901-0.283c-2.433,0-3.648,1.728-3.648,5.181c0,3.353,1.216,5.028,3.648,5.028
			c0.899,0,1.731-0.12,2.499-0.36c0.766-0.24,1.532-0.615,2.299-1.127v4.001c-0.756,0.48-1.52,0.813-2.291,0.996
			C881.733,219.078,880.76,219.17,879.585,219.17z"/>
		<path fill="#AFAFAF" d="M899.65,218.863l-0.904-2.33h-0.123c-0.787,0.991-1.597,1.679-2.43,2.062
			c-0.832,0.384-1.918,0.575-3.257,0.575c-1.646,0-2.94-0.47-3.886-1.41s-1.418-2.279-1.418-4.017c0-1.818,0.637-3.16,1.908-4.023
			c1.272-0.863,3.191-1.341,5.756-1.434l2.975-0.092v-0.751c0-1.737-0.89-2.605-2.668-2.605c-1.369,0-2.979,0.413-4.828,1.241
			l-1.549-3.157c1.973-1.032,4.16-1.549,6.561-1.549c2.3,0,4.063,0.501,5.289,1.502c1.227,1.002,1.84,2.524,1.84,4.568v11.42H899.65
			z M898.271,210.923l-1.81,0.062c-1.358,0.041-2.37,0.286-3.035,0.735c-0.664,0.45-0.996,1.135-0.996,2.055
			c0,1.318,0.756,1.978,2.269,1.978c1.083,0,1.949-0.312,2.598-0.936c0.649-0.623,0.975-1.451,0.975-2.483V210.923z"/>
		<path fill="#AFAFAF" d="M913.154,219.17c-2.013,0-3.594-0.782-4.744-2.346c-1.149-1.563-1.725-3.729-1.725-6.499
			c0-2.811,0.586-5,1.756-6.568s2.782-2.353,4.836-2.353c2.156,0,3.802,0.838,4.936,2.514h0.154
			c-0.236-1.277-0.354-2.417-0.354-3.418v-5.488h4.691v23.852h-3.588l-0.904-2.223h-0.199
			C916.951,218.327,915.332,219.17,913.154,219.17z M914.795,215.445c1.195,0,2.072-0.348,2.629-1.043
			c0.557-0.694,0.861-1.875,0.912-3.541v-0.506c0-1.839-0.283-3.157-0.851-3.954c-0.567-0.798-1.489-1.196-2.767-1.196
			c-1.043,0-1.853,0.442-2.43,1.326c-0.578,0.884-0.866,2.169-0.866,3.855c0,1.686,0.291,2.95,0.874,3.794
			C912.879,215.023,913.712,215.445,914.795,215.445z"/>
		<path fill="#AFAFAF" d="M938.479,218.863l-0.904-2.33h-0.123c-0.787,0.991-1.598,1.679-2.43,2.062
			c-0.833,0.384-1.919,0.575-3.258,0.575c-1.645,0-2.94-0.47-3.885-1.41c-0.945-0.94-1.418-2.279-1.418-4.017
			c0-1.818,0.636-3.16,1.908-4.023c1.271-0.863,3.19-1.341,5.756-1.434l2.974-0.092v-0.751c0-1.737-0.89-2.605-2.667-2.605
			c-1.37,0-2.979,0.413-4.829,1.241l-1.548-3.157c1.973-1.032,4.159-1.549,6.561-1.549c2.299,0,4.063,0.501,5.289,1.502
			c1.226,1.002,1.839,2.524,1.839,4.568v11.42H938.479z M937.099,210.923l-1.81,0.062c-1.358,0.041-2.37,0.286-3.035,0.735
			c-0.664,0.45-0.996,1.135-0.996,2.055c0,1.318,0.756,1.978,2.27,1.978c1.082,0,1.949-0.312,2.598-0.936
			c0.648-0.623,0.974-1.451,0.974-2.483V210.923z"/>
		<path fill="#AFAFAF" d="M964.123,219.17c-2.014,0-3.592-0.73-4.736-2.192h-0.246c0.164,1.431,0.246,2.259,0.246,2.483v6.944
			h-4.676v-24.68h3.801l0.66,2.223h0.215c1.093-1.696,2.713-2.544,4.858-2.544c2.023,0,3.607,0.781,4.752,2.345
			s1.717,3.735,1.717,6.515c0,1.83-0.269,3.419-0.805,4.768s-1.3,2.376-2.292,3.081C966.627,218.817,965.461,219.17,964.123,219.17z
			 M962.743,205.145c-1.155,0-1.998,0.354-2.529,1.064c-0.531,0.711-0.808,1.884-0.827,3.519v0.506c0,1.839,0.272,3.157,0.819,3.955
			c0.547,0.797,1.413,1.195,2.599,1.195c2.095,0,3.143-1.727,3.143-5.182c0-1.686-0.259-2.95-0.774-3.793
			C964.656,205.565,963.847,205.145,962.743,205.145z"/>
		<path fill="#AFAFAF" d="M984.143,201.404c0.633,0,1.159,0.046,1.578,0.138l-0.352,4.384c-0.379-0.102-0.839-0.153-1.381-0.153
			c-1.492,0-2.654,0.384-3.486,1.149c-0.834,0.767-1.25,1.84-1.25,3.22v8.722h-4.675v-17.138h3.541l0.689,2.882h0.229
			c0.531-0.96,1.25-1.734,2.154-2.322C982.096,201.698,983.079,201.404,984.143,201.404z"/>
		<path fill="#AFAFAF" d="M1004.406,210.264c0,2.79-0.736,4.972-2.207,6.546c-1.472,1.573-3.521,2.36-6.146,2.36
			c-1.646,0-3.097-0.36-4.354-1.081c-1.258-0.72-2.223-1.755-2.897-3.104c-0.675-1.35-1.012-2.923-1.012-4.722
			c0-2.8,0.73-4.977,2.192-6.53c1.461-1.553,3.516-2.329,6.162-2.329c1.645,0,3.096,0.357,4.354,1.072
			c1.256,0.716,2.223,1.743,2.896,3.081C1004.069,206.896,1004.406,208.466,1004.406,210.264z M992.557,210.264
			c0,1.696,0.279,2.979,0.836,3.848c0.557,0.869,1.464,1.303,2.721,1.303c1.247,0,2.144-0.432,2.69-1.295s0.82-2.148,0.82-3.855
			c0-1.696-0.276-2.969-0.828-3.816c-0.552-0.849-1.456-1.272-2.713-1.272c-1.247,0-2.146,0.422-2.698,1.265
			C992.834,207.282,992.557,208.558,992.557,210.264z"/>
		<path fill="#AFAFAF" d="M1013.695,219.17c-2.013,0-3.594-0.782-4.744-2.346c-1.149-1.563-1.725-3.729-1.725-6.499
			c0-2.811,0.586-5,1.756-6.568s2.782-2.353,4.836-2.353c2.156,0,3.802,0.838,4.936,2.514h0.154
			c-0.236-1.277-0.354-2.417-0.354-3.418v-5.488h4.691v23.852h-3.588l-0.904-2.223h-0.199
			C1017.492,218.327,1015.873,219.17,1013.695,219.17z M1015.336,215.445c1.195,0,2.072-0.348,2.629-1.043
			c0.557-0.694,0.861-1.875,0.912-3.541v-0.506c0-1.839-0.283-3.157-0.851-3.954c-0.567-0.798-1.489-1.196-2.767-1.196
			c-1.043,0-1.853,0.442-2.43,1.326c-0.578,0.884-0.866,2.169-0.866,3.855c0,1.686,0.291,2.95,0.874,3.794
			C1013.42,215.023,1014.253,215.445,1015.336,215.445z"/>
		<path fill="#AFAFAF" d="M1040.275,218.863l-0.629-2.192h-0.244c-0.502,0.798-1.211,1.413-2.131,1.848
			c-0.92,0.434-1.968,0.651-3.143,0.651c-2.014,0-3.531-0.539-4.553-1.617s-1.533-2.629-1.533-4.652v-11.175h4.676v10.01
			c0,1.236,0.219,2.164,0.658,2.782s1.141,0.928,2.101,0.928c1.308,0,2.253-0.438,2.836-1.311c0.583-0.874,0.874-2.322,0.874-4.346
			v-8.063h4.675v17.138H1040.275z"/>
		<path fill="#AFAFAF" d="M1055.727,219.17c-5.334,0-8.002-2.928-8.002-8.783c0-2.913,0.727-5.138,2.178-6.676
			s3.53-2.307,6.238-2.307c1.982,0,3.761,0.388,5.334,1.165l-1.379,3.617c-0.736-0.296-1.421-0.539-2.055-0.729
			c-0.633-0.188-1.268-0.283-1.9-0.283c-2.432,0-3.648,1.728-3.648,5.181c0,3.353,1.217,5.028,3.648,5.028
			c0.898,0,1.732-0.12,2.498-0.36c0.768-0.24,1.533-0.615,2.3-1.127v4.001c-0.757,0.48-1.521,0.813-2.292,0.996
			C1057.875,219.078,1056.902,219.17,1055.727,219.17z"/>
		<path fill="#AFAFAF" d="M1072.129,215.445c0.816,0,1.798-0.179,2.943-0.537v3.479c-1.166,0.521-2.597,0.782-4.293,0.782
			c-1.869,0-3.232-0.473-4.085-1.418c-0.854-0.945-1.28-2.363-1.28-4.254v-8.262h-2.238v-1.978l2.576-1.563l1.349-3.618h2.989v3.648
			h4.798v3.511h-4.798v8.262c0,0.665,0.186,1.155,0.56,1.472C1071.021,215.287,1071.516,215.445,1072.129,215.445z"/>
		<path fill="#AFAFAF" d="M1094.109,210.264c0,2.79-0.735,4.972-2.207,6.546c-1.471,1.573-3.52,2.36-6.146,2.36
			c-1.646,0-3.096-0.36-4.354-1.081c-1.257-0.72-2.223-1.755-2.896-3.104c-0.675-1.35-1.012-2.923-1.012-4.722
			c0-2.8,0.73-4.977,2.191-6.53c1.461-1.553,3.516-2.329,6.162-2.329c1.646,0,3.097,0.357,4.354,1.072
			c1.257,0.716,2.223,1.743,2.896,3.081C1093.773,206.896,1094.109,208.466,1094.109,210.264z M1082.261,210.264
			c0,1.696,0.278,2.979,0.835,3.848c0.558,0.869,1.465,1.303,2.722,1.303c1.247,0,2.144-0.432,2.69-1.295s0.82-2.148,0.82-3.855
			c0-1.696-0.276-2.969-0.828-3.816c-0.553-0.849-1.457-1.272-2.713-1.272c-1.248,0-2.146,0.422-2.698,1.265
			S1082.261,208.558,1082.261,210.264z"/>
		<path fill="#AFAFAF" d="M1117.012,218.863l-0.904-2.33h-0.123c-0.787,0.991-1.598,1.679-2.43,2.062
			c-0.833,0.384-1.919,0.575-3.258,0.575c-1.645,0-2.94-0.47-3.885-1.41c-0.945-0.94-1.418-2.279-1.418-4.017
			c0-1.818,0.636-3.16,1.908-4.023c1.271-0.863,3.19-1.341,5.756-1.434l2.974-0.092v-0.751c0-1.737-0.89-2.605-2.667-2.605
			c-1.37,0-2.979,0.413-4.829,1.241l-1.548-3.157c1.973-1.032,4.159-1.549,6.561-1.549c2.299,0,4.063,0.501,5.289,1.502
			c1.226,1.002,1.839,2.524,1.839,4.568v11.42H1117.012z M1115.632,210.923l-1.81,0.062c-1.358,0.041-2.37,0.286-3.035,0.735
			c-0.664,0.45-0.996,1.135-0.996,2.055c0,1.318,0.756,1.978,2.27,1.978c1.082,0,1.949-0.312,2.598-0.936
			c0.648-0.623,0.974-1.451,0.974-2.483V210.923z"/>
		<path fill="#AFAFAF" d="M1140.908,218.863h-4.675v-10.01c0-1.236-0.22-2.164-0.659-2.782s-1.14-0.927-2.1-0.927
			c-1.309,0-2.254,0.437-2.836,1.311c-0.583,0.873-0.874,2.322-0.874,4.346v8.063h-4.675v-17.138h3.571l0.628,2.192h0.261
			c0.521-0.828,1.239-1.454,2.153-1.878c0.915-0.424,1.955-0.636,3.12-0.636c1.993,0,3.505,0.539,4.537,1.617
			s1.548,2.634,1.548,4.667V218.863z"/>
		<path fill="#AFAFAF" d="M1152.941,215.445c0.817,0,1.799-0.179,2.943-0.537v3.479c-1.165,0.521-2.596,0.782-4.293,0.782
			c-1.869,0-3.231-0.473-4.084-1.418c-0.854-0.945-1.28-2.363-1.28-4.254v-8.262h-2.238v-1.978l2.575-1.563l1.35-3.618h2.988v3.648
			h4.799v3.511h-4.799v8.262c0,0.665,0.187,1.155,0.561,1.472C1151.835,215.287,1152.328,215.445,1152.941,215.445z"/>
		<path fill="#AFAFAF" d="M1167.105,219.17c-2.76,0-4.916-0.762-6.469-2.284c-1.554-1.522-2.33-3.679-2.33-6.469
			c0-2.871,0.718-5.092,2.154-6.66c1.436-1.568,3.42-2.353,5.955-2.353c2.422,0,4.307,0.689,5.656,2.069
			c1.349,1.379,2.023,3.285,2.023,5.717v2.27h-11.053c0.051,1.328,0.445,2.365,1.181,3.111s1.768,1.119,3.097,1.119
			c1.031,0,2.008-0.107,2.928-0.322s1.88-0.557,2.881-1.026v3.617c-0.816,0.409-1.691,0.713-2.621,0.912
			S1168.443,219.17,1167.105,219.17z M1166.446,204.73c-0.991,0-1.769,0.314-2.33,0.942c-0.562,0.629-0.884,1.521-0.966,2.675h6.561
			c-0.021-1.154-0.322-2.046-0.904-2.675C1168.225,205.045,1167.438,204.73,1166.446,204.73z"/>
		<path fill="#AFAFAF" d="M1189.854,213.774c0,1.758-0.611,3.096-1.832,4.016c-1.222,0.92-3.049,1.38-5.48,1.38
			c-1.247,0-2.31-0.084-3.188-0.253s-1.701-0.416-2.468-0.743v-3.863c0.869,0.409,1.848,0.751,2.936,1.027
			c1.088,0.275,2.047,0.414,2.874,0.414c1.696,0,2.544-0.491,2.544-1.472c0-0.368-0.111-0.667-0.336-0.897
			c-0.226-0.229-0.613-0.49-1.166-0.781c-0.551-0.291-1.287-0.631-2.207-1.02c-1.318-0.552-2.287-1.063-2.904-1.533
			c-0.619-0.47-1.068-1.009-1.35-1.617c-0.281-0.607-0.422-1.356-0.422-2.245c0-1.522,0.591-2.7,1.771-3.533
			c1.18-0.833,2.854-1.249,5.02-1.249c2.064,0,4.072,0.449,6.024,1.349l-1.41,3.372c-0.858-0.368-1.661-0.669-2.407-0.904
			s-1.507-0.353-2.283-0.353c-1.38,0-2.07,0.373-2.07,1.119c0,0.419,0.223,0.781,0.668,1.088c0.443,0.307,1.418,0.762,2.92,1.364
			c1.338,0.542,2.319,1.048,2.943,1.518c0.623,0.471,1.082,1.012,1.379,1.625S1189.854,212.926,1189.854,213.774z"/>
		<path fill="#AFAFAF" d="M1195.279,211.429v-1.134c0-0.981,0.209-1.835,0.629-2.561c0.418-0.726,1.185-1.497,2.299-2.314
			c1.072-0.767,1.78-1.39,2.123-1.87c0.342-0.48,0.514-1.017,0.514-1.609c0-0.664-0.246-1.17-0.736-1.518s-1.176-0.521-2.054-0.521
			c-1.533,0-3.28,0.501-5.243,1.503l-1.67-3.357c2.278-1.277,4.695-1.916,7.25-1.916c2.105,0,3.779,0.506,5.021,1.518
			s1.862,2.36,1.862,4.047c0,1.124-0.256,2.095-0.767,2.912c-0.511,0.818-1.481,1.737-2.913,2.76
			c-0.98,0.726-1.602,1.277-1.861,1.655c-0.261,0.378-0.391,0.874-0.391,1.486v0.92H1195.279z M1194.789,216.671
			c0-0.858,0.229-1.507,0.689-1.946c0.459-0.439,1.129-0.659,2.008-0.659c0.848,0,1.505,0.225,1.97,0.675
			c0.465,0.449,0.698,1.093,0.698,1.931c0,0.808-0.236,1.444-0.706,1.909s-1.124,0.697-1.962,0.697
			c-0.858,0-1.523-0.228-1.992-0.683C1195.023,218.141,1194.789,217.499,1194.789,216.671z"/>
	</g>
</g>
<g>
	<g>
		<path fill="#E2E2E2" d="M254.775,78.236c0,0-0.575-0.809-1.478-2.275c-0.371-0.776-0.913-1.751-1.334-2.913
			c-0.202-0.588-0.417-1.213-0.643-1.873c-0.203-0.669-0.332-1.389-0.511-2.143c-0.193-0.756-0.284-1.551-0.37-2.381
			c-0.092-0.83-0.204-1.701-0.183-2.584c-0.002-0.886-0.031-1.813,0.037-2.744c0.09-0.925,0.17-1.88,0.292-2.848
			c0.329-1.9,0.694-3.893,1.332-5.806c0.535-1.968,1.364-3.825,2.132-5.725c0.924-1.794,1.737-3.686,2.817-5.339
			c0.515-0.846,1.012-1.695,1.53-2.516c0.535-0.807,1.102-1.569,1.639-2.337c0.541-0.763,1.069-1.521,1.627-2.224
			c0.568-0.692,1.125-1.369,1.666-2.028c0.551-0.65,1.087-1.282,1.606-1.893c0.545-0.582,1.073-1.145,1.579-1.685
			c1.042-1.053,1.961-2.048,2.834-2.869c0.886-0.804,1.659-1.505,2.296-2.083c1.292-1.128,2.031-1.773,2.031-1.773l4.016,3.88
			c0,0-0.564,0.758-1.551,2.085c-1.016,1.298-2.452,3.156-4.092,5.418c-0.423,0.554-0.864,1.132-1.32,1.729
			c-0.429,0.613-0.873,1.246-1.329,1.897c-0.467,0.642-0.946,1.3-1.436,1.974c-0.461,0.687-0.933,1.388-1.412,2.102
			c-0.477,0.712-0.988,1.424-1.459,2.166c-0.45,0.752-0.935,1.495-1.408,2.253l-0.719,1.138l-0.657,1.17
			c-0.448,0.778-0.898,1.56-1.348,2.341c-0.775,1.603-1.682,3.17-2.338,4.785c-0.358,0.798-0.753,1.586-1.014,2.393
			c-0.295,0.798-0.639,1.584-0.899,2.372c-0.226,0.793-0.488,1.569-0.733,2.339c-0.22,0.771-0.362,1.535-0.566,2.282
			c-0.223,0.748-0.281,1.482-0.424,2.199c-0.064,0.361-0.126,0.715-0.188,1.063c-0.057,0.35-0.06,0.691-0.104,1.03
			c-0.06,0.676-0.156,1.337-0.18,1.963c-0.017,0.632-0.033,1.232-0.048,1.796c-0.044,0.581,0.006,1.091,0.022,1.585
			c0.015,0.501,0.029,0.961,0.042,1.377c0.083,0.856,0.148,1.53,0.193,1.989C254.757,77.989,254.775,78.236,254.775,78.236z"/>
		<g>
			<polygon fill="#E2E2E2" points="267.971,61.642 262.763,59.574 276.285,25.476 244.009,42.905 241.349,37.979 287.161,13.239 			
				"/>
		</g>
	</g>
</g>
<g>
	<g>
		<path fill-rule="evenodd" clip-rule="evenodd" fill="#AFAFAF" d="M311.354,84.206c0-4.825-0.107-9.653,0.029-14.474
			c0.151-5.37,3.419-8.867,8.092-8.958c4.887-0.096,8.215,3.499,8.416,9.13c0.053,1.496,0.114,3.001,0.004,4.49
			c-0.233,3.119,1.207,3.892,4.104,5.314c5.733,2.815,12.614,2.467,17.631,6.834c1.424,1.239,3.168,0.677,4.785,0.864
			c4.232,0.489,7.773,2.554,7.877,6.948c0.311,13.062,1.945,26.265-3.594,38.873c-4.138,9.42-6.644,11.34-16.854,11.317
			c-4.326-0.012-8.659-0.139-12.976,0.066c-5.462,0.26-9.536-1.928-11.669-6.834c-4.392-10.103-10.571-18.382-20.929-23.069
			c-2.349-1.063-3.819-3.316-3.584-6.104c0.251-2.981,2.26-4.708,4.837-5.833c3.029-1.321,6.205-1.487,9.263-0.368
			c3.873,1.417,4.681-0.285,4.581-3.723c-0.14-4.821-0.035-9.648-0.035-14.473C311.339,84.206,311.347,84.206,311.354,84.206z
			 M316.65,88.129c-0.029,0-0.06,0-0.089,0c0,6.16,0.137,12.324-0.051,18.479c-0.113,3.741-1.974,5.257-5.557,3.069
			c-2.929-1.788-6.109-2.618-9.499-2.545c-1.146,0.025-2.449,0.396-2.759,1.733c-0.28,1.21,0.889,1.634,1.691,2.167
			c0.692,0.461,1.418,0.872,2.145,1.277c7.839,4.367,13.686,10.63,17.089,18.904c2.451,5.96,6.061,9.103,12.896,8.124
			c3.753-0.537,7.662-0.307,11.471-0.033c4.109,0.297,6.447-1.652,8.343-5.006c6.91-12.231,4.899-25.532,4.776-38.6
			c-0.016-1.633-1.16-2.813-2.986-2.674c-1.585,0.121-2.281,1.312-2.424,2.737c-0.164,1.652-0.082,3.329-0.229,4.984
			c-0.199,2.267,0.07,5.401-3.097,5.307c-3.198-0.096-2.618-3.312-2.765-5.508c-0.189-2.82-0.049-5.66-0.191-8.484
			c-0.094-1.85-0.947-3.296-3.082-3.111c-1.85,0.161-2.42,1.581-2.455,3.213c-0.072,3.329-0.043,6.66-0.135,9.988
			c-0.054,1.899-0.383,4.018-2.77,3.992c-2.417-0.026-2.621-2.198-2.656-4.072c-0.084-4.494-0.035-8.991-0.142-13.484
			c-0.048-1.995-0.778-3.773-3.169-3.623c-2.214,0.14-2.391,2.02-2.425,3.724c-0.089,4.494-0.022,8.992-0.196,13.481
			c-0.071,1.856-0.593,3.905-3.015,3.825c-2.148-0.07-2.403-2.015-2.595-3.681c-0.152-1.317-0.127-2.659-0.129-3.99
			c-0.011-8.159,0.115-16.32-0.075-24.475c-0.063-2.698,1.438-7.179-2.789-7.298c-4.349-0.123-2.96,4.372-3.075,7.097
			C316.502,78.465,316.65,83.3,316.65,88.129z"/>
	</g>
</g>
<g>
	<g>
		<path fill="#E2E2E2" d="M406.566,75.746c0,0,0.018-0.247,0.053-0.711c0.044-0.458,0.109-1.132,0.192-1.988
			c0.013-0.416,0.027-0.875,0.042-1.377c0.016-0.494,0.066-1.004,0.022-1.585c-0.015-0.564-0.031-1.164-0.048-1.796
			c-0.024-0.626-0.12-1.287-0.18-1.963c-0.044-0.339-0.047-0.68-0.104-1.03c-0.062-0.348-0.124-0.703-0.188-1.063
			c-0.143-0.717-0.201-1.452-0.424-2.199c-0.204-0.747-0.346-1.511-0.566-2.282c-0.245-0.77-0.507-1.546-0.733-2.339
			c-0.26-0.788-0.604-1.573-0.899-2.372c-0.261-0.807-0.656-1.595-1.015-2.394c-0.655-1.615-1.562-3.183-2.337-4.785
			c-0.45-0.781-0.9-1.563-1.348-2.341l-0.657-1.17l-0.719-1.138c-0.474-0.759-0.958-1.501-1.408-2.253
			c-0.471-0.742-0.982-1.454-1.459-2.167c-0.479-0.713-0.951-1.415-1.412-2.102c-0.49-0.673-0.969-1.333-1.436-1.974
			c-0.456-0.651-0.9-1.285-1.329-1.897c-0.456-0.598-0.897-1.176-1.32-1.73c-1.64-2.262-3.076-4.12-4.092-5.418
			c-0.987-1.327-1.551-2.085-1.551-2.085l4.016-3.879c0,0,0.739,0.645,2.031,1.772c0.637,0.578,1.41,1.278,2.296,2.083
			c0.873,0.821,1.792,1.817,2.834,2.869c0.506,0.54,1.034,1.103,1.579,1.685c0.519,0.611,1.055,1.243,1.606,1.893
			c0.541,0.659,1.097,1.336,1.666,2.029c0.558,0.704,1.086,1.461,1.627,2.224c0.537,0.768,1.104,1.53,1.639,2.337
			c0.519,0.821,1.015,1.67,1.53,2.516c1.08,1.654,1.893,3.545,2.817,5.339c0.769,1.9,1.597,3.757,2.132,5.725
			c0.637,1.913,1.003,3.906,1.332,5.806c0.122,0.968,0.202,1.923,0.292,2.848c0.068,0.931,0.039,1.858,0.037,2.744
			c0.021,0.884-0.091,1.755-0.183,2.584c-0.086,0.83-0.177,1.625-0.37,2.381c-0.18,0.754-0.308,1.474-0.511,2.143
			c-0.226,0.659-0.441,1.285-0.643,1.873c-0.422,1.162-0.964,2.136-1.334,2.913C407.141,74.937,406.565,75.746,406.566,75.746z"/>
		<g>
			<polygon fill="#E2E2E2" points="419.996,35.486 417.332,40.415 385.056,22.985 398.578,57.083 393.374,59.148 374.18,10.749 			
				"/>
		</g>
	</g>
</g>
<g>
</g>
<g>
</g>
<g>
</g>
<g>
</g>
<g>
</g>
<g>
</g>
<g>
</g>
</svg>
